<?xml version="1.0" encoding="UTF-8" standalone="no"?>
<svg stroke-miterlimit="10" version="1.1" viewBox="0 0 884.056 182.932" width="250px" height="200px" xml:space="preserve" xmlns="http://www.w3.org/2000/svg" xmlns:xlink="http://www.w3.org/1999/xlink">
<defs/>
<g id="Sans-titre">
<path d="M54.9924 9.36287C43.5807 9.36287 35.1365 19.6573 35.5146 30.8212C35.8775 41.5468 35.4061 55.4381 32.0131 66.7663C28.608 78.1263 22.8533 85.3253 13.4518 86.2492L13.4518 96.6813C22.8533 97.6072 28.608 104.802 32.0126 116.164C35.4061 127.493 35.8771 141.385 35.5142 152.11C35.1361 163.271 43.5803 173.57 54.994 173.57L171.926 173.57C183.339 173.57 191.781 163.273 191.403 152.11C191.04 141.385 191.512 127.493 194.904 116.164C198.31 104.802 204.05 97.6044 213.452 96.6813L213.452 86.2492C204.05 85.3232 198.31 78.1281 194.904 66.7663C191.511 55.4397 191.04 41.5468 191.403 30.8212C191.781 19.6589 183.339 9.36287 171.926 9.36287L54.9908 9.36287L54.9924 9.36287ZM149.045 110.442C149.045 125.814 137.92 135.138 119.457 135.138L88.0281 135.138C86.1558 135.138 84.6382 133.573 84.6382 131.644L84.6382 51.2876C84.6382 49.3581 86.1558 47.794 88.0281 47.794L119.278 47.794C134.673 47.794 144.777 56.3886 144.777 69.5842C144.777 78.8458 137.98 87.1373 129.321 88.59L129.321 89.073C141.108 90.4057 149.045 98.82 149.045 110.442ZM116.03 58.869L98.1097 58.869L98.1097 84.9573L113.203 84.9573C124.871 84.9573 131.305 80.1148 131.305 71.4593C131.303 63.3478 125.772 58.869 116.03 58.869ZM98.1097 95.3083L98.1097 124.058L116.689 124.058C128.838 124.058 135.273 119.034 135.273 109.593C135.273 100.151 128.658 95.3069 115.908 95.3069L98.1097 95.3069L98.1097 95.3083Z" fill="#7851b2" fill-rule="evenodd" opacity="1" stroke="none"/>
<g opacity="1">
<path d="M285.114 83.6547L312.424 83.6547C316.44 83.6547 319.787 82.5169 322.464 80.2411C325.142 77.9653 326.48 74.6855 326.48 70.4018C326.48 65.5824 325.275 62.1911 322.865 60.2277C320.456 58.2643 316.975 57.2825 312.424 57.2825L285.114 57.2825L285.114 83.6547ZM268.381 43.628L314.833 43.628C323.401 43.628 330.273 45.5914 335.449 49.5182C340.627 53.4451 343.214 59.3798 343.214 67.3228C343.214 72.142 342.032 76.2697 339.667 79.7056C337.302 83.1415 333.933 85.7967 329.559 87.6708L329.559 87.9386C335.449 89.1881 339.912 91.9769 342.946 96.3053C345.981 100.634 347.498 106.056 347.498 112.57C347.498 116.319 346.828 119.822 345.49 123.079C344.151 126.337 342.053 129.147 339.198 131.513C336.343 133.878 332.683 135.752 328.22 137.135C323.759 138.518 318.448 139.21 312.29 139.21L268.381 139.21L268.381 43.628ZM285.114 125.556L314.7 125.556C319.787 125.556 323.736 124.239 326.547 121.607C329.358 118.974 330.764 115.248 330.764 110.428C330.764 105.698 329.358 102.062 326.547 99.5182C323.736 96.9747 319.787 95.703 314.7 95.703L285.114 95.703L285.114 125.556Z" fill="#7851b2" fill-rule="nonzero" opacity="1" stroke="none"/>
<path d="M392.209 141.084C386.678 141.084 381.746 140.17 377.417 138.341C373.09 136.51 369.43 133.989 366.44 130.777C363.451 127.564 361.175 123.726 359.612 119.264C358.051 114.801 357.27 109.893 357.27 104.538C357.27 99.2727 358.051 94.409 359.612 89.9465C361.175 85.4842 363.451 81.6467 366.44 78.4338C369.43 75.221 373.09 72.6998 377.417 70.8703C381.746 69.0408 386.678 68.126 392.209 68.126C397.743 68.126 402.674 69.0408 407.002 70.8703C411.331 72.6998 414.99 75.221 417.979 78.4338C420.969 81.6467 423.246 85.4842 424.807 89.9465C426.369 94.409 427.149 99.2727 427.149 104.538C427.149 109.893 426.369 114.801 424.807 119.264C423.246 123.726 420.969 127.564 417.979 130.777C414.99 133.989 411.331 136.51 407.002 138.341C402.674 140.17 397.743 141.084 392.209 141.084ZM392.209 129.037C395.601 129.037 398.546 128.322 401.046 126.894C403.545 125.466 405.597 123.592 407.203 121.272C408.809 118.951 409.993 116.341 410.751 113.441C411.51 110.54 411.889 107.573 411.889 104.538C411.889 101.593 411.51 98.6481 410.751 95.703C409.993 92.7578 408.809 90.1474 407.203 87.8716C405.597 85.5958 403.545 83.744 401.046 82.316C398.546 80.8882 395.601 80.1741 392.209 80.1741C388.819 80.1741 385.874 80.8882 383.375 82.316C380.875 83.744 378.822 85.5958 377.217 87.8716C375.61 90.1474 374.428 92.7578 373.669 95.703C372.911 98.6481 372.531 101.593 372.531 104.538C372.531 107.573 372.911 110.54 373.669 113.441C374.428 116.341 375.61 118.951 377.217 121.272C378.822 123.592 380.875 125.466 383.375 126.894C385.874 128.322 388.819 129.037 392.209 129.037Z" fill="#7851b2" fill-rule="nonzero" opacity="1" stroke="none"/>
<path d="M471.594 141.084C466.061 141.084 461.131 140.17 456.801 138.341C452.473 136.51 448.815 133.989 445.825 130.777C442.836 127.564 440.559 123.726 438.997 119.264C437.436 114.801 436.654 109.893 436.654 104.538C436.654 99.2727 437.436 94.409 438.997 89.9465C440.559 85.4842 442.836 81.6467 445.825 78.4338C448.815 75.221 452.473 72.6998 456.801 70.8703C461.131 69.0408 466.061 68.126 471.594 68.126C477.127 68.126 482.059 69.0408 486.386 70.8703C490.715 72.6998 494.375 75.221 497.364 78.4338C500.354 81.6467 502.629 85.4842 504.19 89.9465C505.754 94.409 506.534 99.2727 506.534 104.538C506.534 109.893 505.754 114.801 504.19 119.264C502.629 123.726 500.354 127.564 497.364 130.777C494.375 133.989 490.715 136.51 486.386 138.341C482.059 140.17 477.127 141.084 471.594 141.084ZM471.594 129.037C474.986 129.037 477.931 128.322 480.429 126.894C482.928 125.466 484.98 123.592 486.587 121.272C488.194 118.951 489.376 116.341 490.135 113.441C490.894 110.54 491.272 107.573 491.272 104.538C491.272 101.593 490.894 98.6481 490.135 95.703C489.376 92.7578 488.194 90.1474 486.587 87.8716C484.98 85.5958 482.928 83.744 480.429 82.316C477.931 80.8882 474.986 80.1741 471.594 80.1741C468.204 80.1741 465.258 80.8882 462.758 82.316C460.26 83.744 458.207 85.5958 456.6 87.8716C454.994 90.1474 453.812 92.7578 453.053 95.703C452.295 98.6481 451.915 101.593 451.915 104.538C451.915 107.573 452.295 110.54 453.053 113.441C453.812 116.341 454.994 118.951 456.6 121.272C458.207 123.592 460.26 125.466 462.758 126.894C465.258 128.322 468.204 129.037 471.594 129.037Z" fill="#7851b2" fill-rule="nonzero" opacity="1" stroke="none"/>
<path d="M512.29 70.0001L523.803 70.0001L523.803 49.2505L539.063 49.2505L539.063 70.0001L552.852 70.0001L552.852 81.379L539.063 81.379L539.063 118.327C539.063 119.933 539.131 121.317 539.264 122.476C539.398 123.637 539.711 124.619 540.201 125.422C540.693 126.225 541.429 126.828 542.41 127.229C543.393 127.631 544.732 127.831 546.427 127.831C547.498 127.831 548.568 127.808 549.639 127.765C550.711 127.72 551.781 127.564 552.852 127.297L552.852 139.077C551.157 139.255 549.505 139.434 547.899 139.613C546.293 139.789 544.642 139.88 542.946 139.88C538.93 139.88 535.695 139.5 533.24 138.742C530.787 137.983 528.868 136.868 527.484 135.395C526.102 133.923 525.165 132.07 524.673 129.84C524.183 127.608 523.893 125.065 523.803 122.209L523.803 81.379L512.29 81.379L512.29 70.0001Z" fill="#7851b2" fill-rule="nonzero" opacity="1" stroke="none"/>
<path d="M575.342 116.988C575.789 121.451 577.484 124.574 580.429 126.359C583.375 128.143 586.9 129.037 591.005 129.037C592.433 129.037 594.062 128.924 595.891 128.702C597.722 128.478 599.439 128.055 601.046 127.43C602.651 126.805 603.968 125.891 604.994 124.685C606.021 123.481 606.49 121.897 606.399 119.933C606.311 117.97 605.597 116.363 604.258 115.114C602.92 113.864 601.202 112.86 599.104 112.102C597.007 111.343 594.619 110.696 591.942 110.161C589.264 109.625 586.543 109.045 583.776 108.42C580.921 107.796 578.177 107.037 575.543 106.145C572.911 105.252 570.546 104.047 568.448 102.53C566.351 101.013 564.678 99.0719 563.428 96.707C562.179 94.342 561.554 91.4191 561.554 87.9386C561.554 84.1902 562.469 81.0443 564.298 78.5008C566.128 75.9572 568.448 73.9045 571.259 72.3429C574.07 70.7811 577.195 69.6877 580.63 69.063C584.067 68.4383 587.346 68.126 590.47 68.126C594.04 68.126 597.453 68.5053 600.711 69.2639C603.968 70.0224 606.913 71.2496 609.546 72.9452C612.179 74.6409 614.365 76.8497 616.105 79.5717C617.846 82.2938 618.94 85.5736 619.385 89.4111L603.454 89.4111C602.742 85.7519 601.068 83.2978 598.435 82.0483C595.802 80.7988 592.79 80.1741 589.398 80.1741C588.327 80.1741 587.056 80.2633 585.584 80.4419C584.111 80.6204 582.728 80.9551 581.433 81.4459C580.14 81.9367 579.047 82.6507 578.154 83.5878C577.261 84.5249 576.815 85.7519 576.815 87.2692C576.815 89.1433 577.462 90.6606 578.756 91.8208C580.051 92.9809 581.746 93.9403 583.842 94.6989C585.941 95.4575 588.327 96.1045 591.005 96.64C593.682 97.1755 596.45 97.7556 599.304 98.3803C602.072 99.005 604.794 99.7637 607.471 100.656C610.148 101.548 612.536 102.753 614.632 104.271C616.731 105.788 618.426 107.706 619.72 110.027C621.015 112.347 621.661 115.203 621.661 118.595C621.661 122.7 620.724 126.181 618.85 129.037C616.975 131.891 614.544 134.213 611.554 135.997C608.565 137.782 605.24 139.077 601.58 139.88C597.922 140.683 594.307 141.084 590.737 141.084C586.365 141.084 582.326 140.593 578.622 139.613C574.919 138.63 571.705 137.135 568.984 135.128C566.262 133.12 564.121 130.62 562.557 127.631C560.996 124.64 560.172 121.093 560.081 116.988L575.342 116.988Z" fill="#7851b2" fill-rule="nonzero" opacity="1" stroke="none"/>
<path d="M626.346 70.0001L637.859 70.0001L637.859 49.2505L653.12 49.2505L653.12 70.0001L666.909 70.0001L666.909 81.379L653.12 81.379L653.12 118.327C653.12 119.933 653.187 121.317 653.321 122.476C653.454 123.637 653.767 124.619 654.258 125.422C654.749 126.225 655.485 126.828 656.467 127.229C657.449 127.631 658.787 127.831 660.483 127.831C661.554 127.831 662.625 127.808 663.695 127.765C664.766 127.72 665.838 127.564 666.909 127.297L666.909 139.077C665.214 139.255 663.562 139.434 661.955 139.613C660.348 139.789 658.699 139.88 657.002 139.88C652.986 139.88 649.752 139.5 647.296 138.742C644.843 137.983 642.924 136.868 641.541 135.395C640.158 133.923 639.22 132.07 638.73 129.84C638.239 127.608 637.949 125.065 637.859 122.209L637.859 81.379L626.346 81.379L626.346 70.0001Z" fill="#7851b2" fill-rule="nonzero" opacity="1" stroke="none"/>
<path d="M677.885 70.0001L692.209 70.0001L692.209 83.387L692.478 83.387C692.924 81.5128 693.795 79.6833 695.088 77.8984C696.383 76.1134 697.944 74.4848 699.774 73.0122C701.604 71.5396 703.633 70.357 705.864 69.4646C708.096 68.5723 710.372 68.126 712.692 68.126C714.477 68.126 715.704 68.1706 716.373 68.2598C717.042 68.3491 717.735 68.4383 718.448 68.5275L718.448 83.2532C717.377 83.0746 716.284 82.9185 715.168 82.7845C714.053 82.6507 712.959 82.5838 711.889 82.5838C709.301 82.5838 706.869 83.097 704.593 84.1233C702.316 85.1496 700.332 86.6667 698.636 88.6748C696.941 90.6829 695.601 93.1594 694.619 96.1045C693.639 99.0496 693.147 102.441 693.147 106.279L693.147 139.21L677.885 139.21L677.885 70.0001Z" fill="#7851b2" fill-rule="nonzero" opacity="1" stroke="none"/>
<path d="M782.973 123.816C782.973 125.69 783.219 127.028 783.709 127.831C784.2 128.635 785.159 129.037 786.587 129.037C787.033 129.037 787.569 129.037 788.194 129.037C788.819 129.037 789.532 128.946 790.335 128.768L790.335 139.344C789.8 139.522 789.109 139.723 788.261 139.946C787.414 140.17 786.543 140.371 785.65 140.55C784.758 140.726 783.866 140.861 782.973 140.951C782.081 141.039 781.323 141.084 780.696 141.084C777.574 141.084 774.986 140.459 772.933 139.21C770.881 137.961 769.542 135.774 768.916 132.651C765.882 135.596 762.156 137.739 757.738 139.077C753.321 140.416 749.06 141.084 744.954 141.084C741.831 141.084 738.841 140.66 735.985 139.813C733.13 138.965 730.608 137.715 728.421 136.065C726.236 134.414 724.495 132.316 723.2 129.773C721.906 127.229 721.259 124.262 721.259 120.87C721.259 116.586 722.04 113.106 723.601 110.428C725.165 107.751 727.217 105.654 729.759 104.137C732.303 102.62 735.159 101.526 738.327 100.857C741.496 100.188 744.686 99.6744 747.899 99.3174C750.667 98.7819 753.299 98.4025 755.797 98.1796C758.297 97.9565 760.506 97.5771 762.424 97.0417C764.343 96.5062 765.861 95.6807 766.975 94.5651C768.091 93.4494 768.649 91.776 768.649 89.545C768.649 87.5816 768.18 85.9751 767.243 84.7256C766.306 83.4762 765.146 82.5169 763.763 81.8475C762.38 81.1781 760.84 80.7319 759.144 80.5088C757.449 80.2858 755.842 80.1741 754.325 80.1741C750.041 80.1741 746.516 81.0665 743.749 82.8515C740.983 84.6365 739.421 87.4031 739.063 91.1514L723.803 91.1514C724.07 86.6891 725.142 82.9854 727.016 80.0402C728.89 77.0951 731.278 74.7302 734.177 72.9452C737.079 71.1602 740.358 69.9109 744.017 69.1969C747.677 68.4829 751.425 68.126 755.262 68.126C758.653 68.126 762 68.4829 765.302 69.1969C768.605 69.9109 771.572 71.0711 774.205 72.6775C776.838 74.2839 778.956 76.3589 780.563 78.9024C782.169 81.4459 782.973 84.5472 782.973 88.2063L782.973 123.816ZM767.712 104.538C765.393 106.056 762.536 106.97 759.144 107.283C755.754 107.595 752.362 108.063 748.97 108.688C747.364 108.956 745.802 109.335 744.284 109.826C742.768 110.317 741.429 110.986 740.269 111.834C739.109 112.682 738.194 113.798 737.524 115.181C736.854 116.564 736.521 118.238 736.521 120.201C736.521 121.897 737.011 123.325 737.993 124.484C738.975 125.645 740.158 126.559 741.541 127.229C742.924 127.899 744.441 128.367 746.092 128.635C747.743 128.902 749.238 129.037 750.576 129.037C752.273 129.037 754.102 128.813 756.065 128.367C758.029 127.921 759.88 127.163 761.62 126.091C763.361 125.02 764.811 123.66 765.972 122.008C767.133 120.357 767.712 118.327 767.712 115.917L767.712 104.538Z" fill="#7851b2" fill-rule="nonzero" opacity="1" stroke="none"/>
<path d="M799.84 70.0001L814.298 70.0001L814.298 79.3709L814.566 79.3709C816.707 75.3549 819.698 72.4767 823.535 70.7364C827.374 68.9961 831.523 68.126 835.985 68.126C841.429 68.126 846.182 69.0853 850.242 71.0041C854.303 72.923 857.671 75.5557 860.348 78.9024C863.027 82.2492 865.035 86.1536 866.373 90.6159C867.712 95.0782 868.381 99.8528 868.381 104.94C868.381 109.581 867.778 114.088 866.574 118.461C865.369 122.834 863.54 126.693 861.085 130.04C858.631 133.387 855.53 136.065 851.781 138.072C848.033 140.081 843.616 141.084 838.528 141.084C836.298 141.084 834.067 140.883 831.835 140.482C829.604 140.081 827.462 139.434 825.409 138.541C823.357 137.648 821.46 136.51 819.72 135.128C817.979 133.744 816.53 132.115 815.369 130.241L815.101 130.241L815.101 164.78L799.84 164.78L799.84 70.0001ZM853.12 104.672C853.12 101.548 852.718 98.5142 851.915 95.5691C851.112 92.624 849.907 90.0135 848.301 87.7378C846.694 85.462 844.686 83.6325 842.277 82.2492C839.867 80.8658 837.101 80.1741 833.977 80.1741C827.551 80.1741 822.71 82.4053 819.452 86.8676C816.196 91.3299 814.566 97.2646 814.566 104.672C814.566 108.153 814.99 111.388 815.838 114.378C816.685 117.367 817.957 119.933 819.652 122.075C821.349 124.217 823.379 125.912 825.744 127.163C828.11 128.41 830.854 129.037 833.977 129.037C837.458 129.037 840.402 128.322 842.812 126.894C845.221 125.466 847.208 123.615 848.769 121.338C850.332 119.063 851.447 116.475 852.116 113.574C852.785 110.674 853.12 107.706 853.12 104.672Z" fill="#7851b2" fill-rule="nonzero" opacity="1" stroke="none"/>
</g>
</g>
</svg>
