<?xml version="1.0" encoding="UTF-8" standalone="no"?>

<svg height="150px" stroke-miterlimit="10" version="1.1" viewBox="0 0 2471.03 847.109" width="150px" xml:space="preserve" xmlns="http://www.w3.org/2000/svg" xmlns:xlink="http://www.w3.org/1999/xlink">
<defs/>
<g id="layer1">
<g opacity="1">
<path d="M2418.27 18.1237L2353.7 741.456L2063.47 821.926L1774.02 741.576L1709.52 18.1237L2418.27 18.1237Z" fill="#264de4" fill-rule="nonzero" opacity="1" stroke="none"/>
<path d="M2298.43 695.396L2353.61 77.2767L2063.9 77.2767L2063.9 760.416L2298.43 695.396Z" fill="#2965f1" fill-rule="nonzero" opacity="1" stroke="none"/>
<path d="M1857.39 345.594L1865.34 434.321L2063.9 434.321L2063.9 345.594L1857.39 345.594Z" fill="#ebebeb" fill-rule="nonzero" opacity="1" stroke="none"/>
<path d="M2063.9 166.006L2063.59 166.006L1841.41 166.006L1849.48 254.735L2063.9 254.735L2063.9 166.006Z" fill="#ebebeb" fill-rule="nonzero" opacity="1" stroke="none"/>
<path d="M2063.9 668.344L2063.9 576.03L2063.51 576.134L1964.69 549.451L1958.38 478.686L1910.36 478.686L1869.31 478.686L1881.74 618.002L2063.49 668.458L2063.9 668.344Z" fill="#ebebeb" fill-rule="nonzero" opacity="1" stroke="none"/>
<path d="M58.1891 152.885L483.439 152.885L483.439 330.716L236.021 330.716L236.021 508.548L483.439 508.548L483.439 686.376L58.1891 686.376L58.1891 152.885Z" fill="#000000" fill-rule="nonzero" opacity="1" stroke="none"/>
<path d="M533.543 147.821L958.791 147.821L958.791 302.457L711.375 302.457L711.375 333.384L958.791 333.384L958.791 689.046L533.543 689.046L533.543 526.68L780.961 526.68L780.961 495.752L533.543 495.752L533.543 147.821Z" fill="#000000" fill-rule="nonzero" opacity="1" stroke="none"/>
<path d="M1008.48 149.019L1433.73 149.019L1433.73 303.655L1186.31 303.655L1186.31 334.582L1433.73 334.582L1433.73 690.246L1008.48 690.246L1008.48 527.878L1255.9 527.878L1255.9 496.95L1008.48 496.95L1008.48 149.019Z" fill="#000000" fill-rule="nonzero" opacity="1" stroke="none"/>
<path d="M2172.85 434.321L2162.55 549.394L2063.59 576.104L2063.59 668.415L2245.49 618.002L2246.82 603.012L2267.67 369.42L2269.84 345.594L2285.86 166.006L2063.59 166.006L2063.59 254.735L2188.62 254.735L2180.55 345.594L2063.59 345.594L2063.59 434.321L2172.85 434.321Z" fill="#ffffff" fill-rule="nonzero" opacity="1" stroke="none"/>
</g>
</g>
</svg>
