<?xml version="1.0" encoding="UTF-8" standalone="no"?>
<svg height="150px" stroke-miterlimit="10" version="1.1" viewBox="0 0 307.853 91.4197" width="150px" xml:space="preserve" xmlns="http://www.w3.org/2000/svg" xmlns:xlink="http://www.w3.org/1999/xlink">
<defs/>
<g id="Sans-titre">
<g opacity="1">
<clipPath id="ClipPath">
<path d="M2.14862 2.03828L299.467 2.03828L299.467 89.1704L2.14862 89.1704L2.14862 2.03828Z"/>
</clipPath>
<g clip-path="url(#ClipPath)">
<path d="M4.37762 69.9776L4.37762 36.497L45.6076 36.497L45.6076 34.5409L4.37762 34.5409L4.37762 3.99438L48.2166 3.99438L48.2166 2.03828L2.45062 2.03828L2.45062 71.9337L48.6036 71.9337L48.6036 69.9776L4.37762 69.9776ZM85.7766 21.615L68.6886 44.4231L51.9796 21.615L49.4716 21.615L67.5276 45.8941L47.7366 71.9337L50.0516 71.9337L68.6886 47.3651L87.4176 71.9337L89.8336 71.9337L69.9426 45.8941L88.0996 21.615L85.7766 21.615ZM95.6256 89.1634L95.6256 57.8341L95.8186 57.8341C96.9806 62.4035 99.2646 66.0732 102.671 68.8509C106.086 71.6207 110.43 73.0056 115.71 73.0056C119.117 73.0056 122.144 72.3092 124.785 70.9087C127.425 69.5003 129.631 67.5911 131.397 65.1812C133.178 62.7713 134.525 59.9623 135.454 56.7622C136.391 53.562 136.855 50.2053 136.855 46.6765C136.855 42.8895 136.375 39.3998 135.407 36.2075C134.44 33.0073 133.038 30.2296 131.211 27.8823C129.376 25.535 127.154 23.7041 124.544 22.3974C121.935 21.0986 118.993 20.4413 115.71 20.4413C113.201 20.4413 110.871 20.8169 108.711 21.568C106.558 22.3192 104.638 23.3833 102.966 24.7525C101.293 26.1218 99.8446 27.7336 98.6216 29.5959C97.3986 31.4581 96.4616 33.4924 95.8186 35.7145L95.6256 35.7145L95.6256 21.615L93.6976 21.615L93.6976 89.1704L95.6256 89.1704L95.6256 89.1634ZM115.71 71.1512C109.663 71.1512 104.801 69.0465 101.131 64.8369C97.4606 60.6274 95.6256 54.5713 95.6256 46.6765C95.6256 43.4137 96.0746 40.3153 96.9806 37.3811C97.8786 34.4392 99.1866 31.8649 100.891 29.6428C102.594 27.4285 104.7 25.6602 107.209 24.3613C109.725 23.0547 112.551 22.3974 115.71 22.3974C118.931 22.3974 121.749 23.0547 124.157 24.3613C126.573 25.6602 128.563 27.4441 130.142 29.6976C131.722 31.9432 132.914 34.5252 133.72 37.4281C134.525 40.3309 134.927 43.4137 134.927 46.6765C134.927 49.6185 134.556 52.537 133.82 55.4398C133.077 58.3427 131.931 60.956 130.39 63.2721C128.842 65.5881 126.86 67.4816 124.444 68.9526C122.036 70.4157 119.117 71.1512 115.71 71.1512ZM147.478 71.9337L147.478 43.445C147.478 40.7065 147.865 38.0306 148.632 35.4172C149.406 32.8117 150.599 30.5113 152.209 28.5161C153.819 26.5287 155.864 24.9638 158.341 23.8214C160.819 22.6791 163.761 22.2018 167.176 22.3974L167.176 20.4413C164.21 20.3787 161.624 20.7073 159.402 21.4194C157.18 22.1392 155.267 23.1173 153.657 24.3613C152.046 25.5976 150.761 27.0529 149.793 28.7117C148.825 30.3783 148.121 32.1544 147.672 34.0479L147.478 34.0479L147.478 21.615L145.55 21.615L145.55 71.9337L147.478 71.9337ZM169.591 47.1694L211.107 47.1694C211.239 43.7111 210.898 40.3779 210.093 37.1855C209.288 33.9853 208.003 31.1451 206.237 28.6647C204.464 26.1844 202.18 24.197 199.377 22.6947C196.574 21.1924 193.245 20.4413 189.382 20.4413C186.617 20.4413 183.907 21.0281 181.275 22.2018C178.635 23.3833 176.312 25.089 174.322 27.3424C172.324 29.5959 170.714 32.35 169.491 35.6128C168.267 38.8834 167.656 42.6 167.656 46.7782C167.656 50.4948 168.081 53.9688 168.91 57.2003C169.746 60.4318 171.039 63.2408 172.774 65.6194C174.508 68.0058 176.745 69.8445 179.486 71.1512C182.22 72.4579 185.526 73.076 189.382 73.0056C195.049 73.0056 199.811 71.3938 203.674 68.1701C207.53 64.9387 209.822 60.3849 210.527 54.5087L208.599 54.5087C207.763 60.0562 205.618 64.2188 202.18 66.9886C198.735 69.7663 194.406 71.1512 189.188 71.1512C185.65 71.1512 182.653 70.5331 180.206 69.289C177.76 68.0528 175.77 66.3549 174.221 64.2032C172.681 62.0436 171.535 59.5163 170.799 56.6135C170.056 53.7106 169.653 50.5574 169.591 47.1694ZM209.179 45.2133L169.591 45.2133C169.785 41.6845 170.427 38.5235 171.519 35.7145C172.619 32.9056 174.051 30.5113 175.816 28.5161C177.589 26.5287 179.649 25.0108 181.995 23.9701C184.349 22.9216 186.873 22.3974 189.575 22.3974C192.796 22.3974 195.63 23.0077 198.077 24.2127C200.523 25.4176 202.56 27.0686 204.209 29.1577C205.85 31.2468 207.089 33.6724 207.917 36.45C208.761 39.2199 209.179 42.1462 209.179 45.2133ZM251.176 36.497L253.111 36.497C253.111 30.8869 251.501 26.8025 248.288 24.2596C245.059 21.7167 240.684 20.4413 235.156 20.4413C232.059 20.4413 229.458 20.8325 227.328 21.615C225.199 22.3974 223.472 23.4146 222.11 24.6508C220.763 25.8949 219.795 27.2642 219.214 28.7665C218.641 30.2687 218.355 31.7006 218.355 33.0699C218.355 35.8084 218.835 37.9993 219.795 39.6267C220.763 41.262 222.272 42.5374 224.34 43.445C225.757 44.1023 227.367 44.6891 229.163 45.2133C230.967 45.7298 233.058 46.2853 235.443 46.8721C237.564 47.3964 239.655 47.9206 241.722 48.437C243.774 48.9612 245.593 49.6654 247.173 50.5418C248.752 51.4259 250.037 52.5526 251.029 53.9219C252.035 55.2912 252.531 57.0908 252.531 59.3051C252.531 61.4568 252.035 63.2877 251.029 64.79C250.037 66.2844 248.768 67.5129 247.219 68.4596C245.678 69.4064 243.96 70.0871 242.055 70.5174C240.158 70.94 238.307 71.1512 236.503 71.1512C230.642 71.1512 226.151 69.8289 223.039 67.1843C219.911 64.5396 218.355 60.3849 218.355 54.7043L216.419 54.7043C216.419 61.0343 218.107 65.6741 221.49 68.6083C224.866 71.5424 229.876 73.0056 236.503 73.0056C238.625 73.0056 240.77 72.7709 242.922 72.2779C245.082 71.785 247.01 70.9869 248.721 69.8758C250.425 68.7648 251.811 67.3329 252.871 65.5724C253.932 63.8041 254.466 61.6602 254.466 59.1095C254.466 56.6917 253.994 54.7356 253.057 53.2334C252.128 51.7389 250.905 50.4948 249.395 49.5168C247.877 48.5387 246.174 47.7719 244.277 47.2164C242.372 46.6609 240.46 46.121 238.532 45.6046C235.822 44.8847 233.46 44.2666 231.432 43.7424C229.403 43.2181 227.522 42.6 225.78 41.8802C224.115 41.1603 222.776 40.1353 221.777 38.7973C220.778 37.4594 220.282 35.5502 220.282 33.0699C220.282 32.6161 220.406 31.8023 220.662 30.6208C220.925 29.4472 221.537 28.2579 222.505 27.0529C223.472 25.8401 224.951 24.7682 226.941 23.8214C228.939 22.8747 231.672 22.3974 235.156 22.3974C237.533 22.3974 239.701 22.6634 241.668 23.1877C243.634 23.7041 245.322 24.5413 246.739 25.6837C248.148 26.826 249.248 28.2735 250.014 30.034C250.796 31.8023 251.176 33.954 251.176 36.497ZM295.89 36.497L297.817 36.497C297.817 30.8869 296.207 26.8025 292.986 24.2596C289.765 21.7167 285.39 20.4413 279.854 20.4413C276.765 20.4413 274.164 20.8325 272.034 21.615C269.913 22.3974 268.171 23.4146 266.816 24.6508C265.469 25.8949 264.509 27.2642 263.928 28.7665C263.347 30.2687 263.061 31.7006 263.061 33.0699C263.061 35.8084 263.541 37.9993 264.509 39.6267C265.469 41.262 266.978 42.5374 269.046 43.445C270.455 44.1023 272.065 44.6891 273.869 45.2133C275.673 45.7298 277.764 46.2853 280.149 46.8721C282.27 47.3964 284.361 47.9206 286.42 48.437C288.48 48.9612 290.299 49.6654 291.879 50.5418C293.451 51.4259 294.736 52.5526 295.742 53.9219C296.741 55.2912 297.237 57.0908 297.237 59.3051C297.237 61.4568 296.741 63.2877 295.742 64.79C294.736 66.2844 293.474 67.5129 291.925 68.4596C290.384 69.4064 288.658 70.0871 286.761 70.5174C284.856 70.94 283.013 71.1512 281.209 71.1512C275.348 71.1512 270.858 69.8289 267.737 67.1843C264.617 64.5396 263.061 60.3849 263.061 54.7043L261.125 54.7043C261.125 61.0343 262.813 65.6741 266.189 68.6083C269.572 71.5424 274.582 73.0056 281.209 73.0056C283.331 73.0056 285.476 72.7709 287.628 72.2779C289.788 71.785 291.716 70.9869 293.427 69.8758C295.131 68.7648 296.517 67.3329 297.57 65.5724C298.63 63.8041 299.165 61.6602 299.165 59.1095C299.165 56.6917 298.7 54.7356 297.763 53.2334C296.834 51.7389 295.611 50.4948 294.093 49.5168C292.583 48.5387 290.88 47.7719 288.975 47.2164C287.086 46.6609 285.166 46.121 283.238 45.6046C280.528 44.8847 278.167 44.2666 276.138 43.7424C274.109 43.2181 272.228 42.6 270.494 41.8802C268.821 41.1603 267.482 40.1353 266.483 38.7973C265.484 37.4594 264.989 35.5502 264.989 33.0699C264.989 32.6161 265.112 31.8023 265.376 30.6208C265.631 29.4472 266.243 28.2579 267.203 27.0529C268.171 25.8401 269.65 24.7682 271.655 23.8214C273.645 22.8747 276.378 22.3974 279.854 22.3974C282.239 22.3974 284.415 22.6634 286.374 23.1877C288.333 23.7041 290.028 24.5413 291.445 25.6837C292.854 26.826 293.954 28.2735 294.728 30.034C295.502 31.8023 295.89 33.954 295.89 36.497Z" fill="#222222" fill-rule="nonzero" opacity="1" stroke="none"/>
</g>
</g>
</g>
</svg>
