<?xml version="1.0" encoding="UTF-8" standalone="no"?>

<svg height="150px" stroke-miterlimit="10" version="1.1" viewBox="0 0 520.367 140.892" width="150px" xml:space="preserve" xmlns="http://www.w3.org/2000/svg" xmlns:xlink="http://www.w3.org/1999/xlink">
<defs/>
<g id="Sans-titre">
<path d="M226.802 63.5159L196.888 63.5159C196.116 63.5163 195.491 64.142 195.49 64.9139L195.49 79.5394C195.491 80.3116 196.116 80.9379 196.888 80.9396L208.557 80.9396L208.557 99.1097C208.557 99.1097 205.937 100.004 198.693 100.004C190.146 100.004 178.207 96.88 178.207 70.6267C178.207 44.3681 190.639 40.9124 202.311 40.9124C212.414 40.9124 216.767 42.6922 219.536 43.5483C220.406 43.8151 221.211 42.9494 221.211 42.1763L224.548 28.0459C224.548 27.685 224.426 27.2491 224.014 26.9533C222.889 26.1513 216.028 22.3117 198.693 22.3117C178.723 22.3117 158.239 30.8085 158.239 71.6503C158.239 112.495 181.692 118.581 201.455 118.581C217.819 118.581 227.745 111.588 227.745 111.588C228.154 111.361 228.199 110.789 228.199 110.527L228.199 64.9132C228.199 64.1423 227.573 63.5159 226.802 63.5159M380.965 27.2054C380.968 26.8346 380.823 26.4779 380.563 26.2141C380.302 25.9504 379.947 25.8013 379.576 25.8L362.732 25.8C361.959 25.8028 361.335 26.432 361.337 27.2054L361.342 59.7556L335.088 59.7556L335.088 27.2054C335.09 26.8345 334.945 26.4778 334.685 26.2141C334.424 25.9503 334.069 25.8013 333.698 25.8L316.855 25.8C316.083 25.8041 315.46 26.4332 315.464 27.2054L315.464 115.342C315.464 116.119 316.089 116.751 316.855 116.751L333.698 116.751C334.468 116.751 335.088 116.118 335.088 115.342L335.088 77.6425L361.342 77.6425L361.296 115.342C361.296 116.119 361.921 116.751 362.692 116.751L379.575 116.751C380.347 116.751 380.963 116.118 380.965 115.342L380.965 27.2054M258.585 38.7717C258.585 32.7061 253.723 27.805 247.724 27.805C241.731 27.805 236.865 32.7061 236.865 38.7717C236.865 44.8299 241.731 49.7436 247.724 49.7436C253.723 49.7436 258.585 44.8299 258.585 38.7717M257.381 96.7503L257.381 56.0664C257.383 55.2941 256.76 54.6658 255.987 54.6618L239.198 54.6618C238.427 54.6618 237.738 55.4564 237.738 56.2295L237.738 114.516C237.738 116.23 238.805 116.739 240.187 116.739L255.314 116.739C256.974 116.739 257.381 115.923 257.381 114.49L257.381 96.7503M444.976 54.7944L428.261 54.7944C427.495 54.7944 426.871 55.426 426.871 56.2035L426.871 99.4195C426.871 99.4195 422.624 102.527 416.598 102.527C410.572 102.527 408.973 99.7924 408.973 93.8913L408.973 56.2035C408.973 55.426 408.349 54.7944 407.583 54.7944L390.619 54.7944C389.854 54.7944 389.226 55.426 389.226 56.2035L389.226 96.7444C389.226 114.272 398.995 118.56 412.434 118.56C423.459 118.56 432.347 112.47 432.347 112.47C432.347 112.47 432.77 115.679 432.962 116.06C433.153 116.439 433.652 116.822 434.191 116.822L444.984 116.775C445.749 116.775 446.377 116.142 446.377 115.368L446.371 56.2043C446.371 55.426 445.746 54.7944 444.976 54.7944M484.065 102.473C478.268 102.297 474.335 99.6656 474.335 99.6656L474.335 71.7556C474.335 71.7556 478.214 69.3777 482.974 68.9522C488.993 68.4133 494.792 70.2316 494.792 84.5887C494.793 99.7294 492.176 102.717 484.065 102.473ZM490.658 52.8153C481.165 52.8153 474.708 57.0508 474.708 57.0508L474.708 27.2061C474.708 26.4278 474.086 25.8 473.318 25.8L456.427 25.8C455.654 25.8036 455.031 26.4333 455.035 27.2061L455.035 115.342C455.035 116.119 455.659 116.751 456.429 116.751L468.149 116.751C468.676 116.751 469.076 116.479 469.371 116.003C469.662 115.53 470.082 111.94 470.082 111.94C470.082 111.94 476.989 118.485 490.064 118.485C505.414 118.485 514.217 110.699 514.217 83.5324C514.217 56.3651 500.157 52.8153 490.658 52.8153M305.789 54.6543L293.155 54.6543L293.136 37.9623C293.136 37.3307 292.81 37.015 292.08 37.015L274.862 37.015C274.193 37.015 273.834 37.31 273.834 37.9527L273.834 55.2021C273.834 55.2021 265.206 57.2843 264.622 57.4533C264.024 57.6265 263.613 58.1741 263.613 58.7964L263.613 69.6356C263.613 70.4154 264.236 71.0425 265.006 71.0425L273.834 71.0425L273.834 97.118C273.834 116.487 287.419 118.389 296.587 118.389C300.776 118.389 305.786 117.045 306.614 116.738C307.114 116.554 307.405 116.036 307.405 115.474L307.419 103.55C307.419 102.772 306.762 102.144 306.022 102.144C305.286 102.144 303.403 102.444 301.463 102.444C295.258 102.444 293.155 99.5581 293.155 95.823L293.154 71.0418L305.789 71.0418C306.559 71.0418 307.183 70.4139 307.183 69.6349L307.183 56.0575C307.185 55.6865 307.039 55.33 306.777 55.0668C306.516 54.8035 306.16 54.6551 305.789 54.6543" fill="#000000" fill-rule="nonzero" opacity="1" stroke="none"/>
<path d="M68.4123 7.06782C32.5218 7.06782 3.41597 36.1688 3.41597 72.064C3.41597 100.784 22.0377 125.139 47.8642 133.738C51.1149 134.34 52.3097 132.325 52.3097 130.607C52.3097 129.057 52.2449 123.937 52.2185 118.51C34.1342 122.443 30.322 110.838 30.322 110.838C27.3662 103.324 23.1053 101.326 23.1053 101.326C17.2083 97.288 23.554 97.3767 23.554 97.3767C30.0795 97.8327 33.5151 104.07 33.5151 104.07C39.3162 114.007 48.7254 111.131 52.432 109.473C53.0174 105.272 54.6968 102.403 56.5584 100.779C42.1205 99.1402 26.9439 93.5647 26.9439 68.6572C26.9439 61.563 29.487 55.7621 33.6398 51.2132C32.9634 49.5724 30.737 42.9652 34.266 34.0141C34.266 34.0141 39.7239 32.2652 52.1466 40.6765C57.3286 39.2394 62.8872 38.5148 68.4076 38.4909C73.9325 38.5148 79.5009 39.2369 84.6902 40.6765C97.0961 32.2701 102.549 34.0141 102.549 34.0141C106.083 42.9677 103.866 49.5795 103.19 51.2134C107.357 55.7621 109.878 61.563 109.878 68.6572C109.878 93.6222 94.6682 99.1112 80.199 100.721C82.5311 102.736 84.6135 106.692 84.6135 112.753C84.6135 121.445 84.5391 128.45 84.5391 130.587C84.5391 132.317 85.7099 134.34 89.0062 133.706C114.818 125.103 133.416 100.745 133.416 72.0422C133.416 36.1517 104.315 7.04589 68.4172 7.04589L68.4125 7.06762L68.4123 7.06782Z" fill="#000000" fill-rule="evenodd" opacity="1" stroke="none"/>
</g>
</svg>
