<?xml version="1.0" encoding="UTF-8" standalone="no"?>
<svg height="150px" stroke-miterlimit="10" version="1.1" viewBox="0 0 443.042 152.537" width="150px" xml:space="preserve" xmlns="http://www.w3.org/2000/svg" xmlns:xlink="http://www.w3.org/1999/xlink">
<defs/>
<g id="Calque-1">
<g opacity="1">
<clipPath id="ClipPath">
<path d="M8.2855 42.9827L296.652 42.9827L296.652 113.317L8.2855 113.317L8.2855 42.9827Z"/>
</clipPath>
<g clip-path="url(#ClipPath)">
<path d="M8.2855 44.3014L30.6815 44.3014L30.6815 66.3356L51.1665 66.3356L51.1665 44.3014L73.5635 44.3014L73.5635 111.031L51.1665 111.031L51.1665 88.7215L30.6815 88.7215L30.6815 111.031L8.2855 111.031L8.2855 44.3014ZM103.005 66.4345L83.2565 66.4345L83.2565 44.3014L145.084 44.3014L145.084 66.4345L125.358 66.4345L125.358 111.042L102.961 111.042L102.961 66.4345L103.005 66.4345ZM154.898 44.3014L178.251 44.3014L192.614 67.7862L206.966 44.3014L230.286 44.3014L230.286 111.031L207.988 111.031L207.988 77.9515L192.581 101.679L192.196 101.679L176.855 77.9515L176.855 111.031L154.942 111.031L154.898 44.3014ZM241.463 44.3014L263.859 44.3014L263.859 89.0185L295.356 89.0185L295.356 111.075L241.463 111.075L241.463 44.3014Z" fill="#000000" fill-rule="nonzero" opacity="1" stroke="none"/>
</g>
</g>
<g opacity="1">
<clipPath id="ClipPath_2">
<path d="M305.092 7.4644L430.286 7.4644L430.286 148.835L305.092 148.835L305.092 7.4644Z"/>
</clipPath>
<g clip-path="url(#ClipPath_2)">
<path d="M306.004 7.7391L430.308 7.7391L418.988 134.109L368.063 148.164L317.302 134.131L306.004 7.7391Z" fill="#e44d26" fill-rule="nonzero" opacity="1" stroke="none"/>
</g>
</g>
<path d="M409.307 126.466L418.977 18.4814L368.216 18.4814L368.216 137.818L409.307 126.466Z" fill="#f16529" fill-rule="nonzero" opacity="1" stroke="none"/>
<path d="M347.578 65.6322L346.149 49.7523L368.205 49.7523L368.205 34.257L329.181 34.257L333.379 81.1385L368.205 81.1385L368.205 65.6322L347.578 65.6322ZM334.039 88.8865L336.215 113.229L368.096 122.042L368.162 122.02L368.162 105.899L368.096 105.921L350.809 101.228L349.699 88.8535L341.281 88.8535L334.039 88.8865Z" fill="#ebebeb" fill-rule="nonzero" opacity="1" stroke="none"/>
<path d="M403.922 69.8138L404.306 65.6487L368.129 65.6487L368.129 81.1555L387.294 81.1555L385.481 101.255L368.129 105.915L368.129 122.048L400.031 113.234L400.273 110.619L403.922 69.8138ZM368.162 49.7797L405.757 49.7797L407.153 34.2515L368.162 34.2515L368.162 49.7797Z" fill="#ffffff" fill-rule="nonzero" opacity="1" stroke="none"/>
</g>
</svg>
