<?xml version="1.0" encoding="UTF-8" standalone="no"?>
<svg height="150px" stroke-miterlimit="10" version="1.1" viewBox="0 0 612.655 122.646" width="200px" xml:space="preserve" xmlns="http://www.w3.org/2000/svg" xmlns:xlink="http://www.w3.org/1999/xlink">
<defs/>
<g id="Calque-1">
<g opacity="1">
<clipPath id="ClipPath">
<path d="M3.40336 3.80004L118.403 3.80004L118.403 118.8L3.40336 118.8L3.40336 3.80004Z"/>
</clipPath>
<g clip-path="url(#ClipPath)">
<path d="M3.40336 3.80004L118.403 3.80004L118.403 118.8L3.40336 118.8L3.40336 3.80004Z" fill="#ffd600" fill-rule="nonzero" opacity="1" stroke="none"/>
</g>
</g>
<path d="M88.7433 99.949C90.6653 103.071 92.7543 106.063 97.1813 106.063C100.897 106.063 102.847 104.217 102.847 101.662C102.847 98.602 100.829 97.516 96.7413 95.735L94.4993 94.779C88.0303 92.037 83.7283 88.597 83.7283 81.3342C83.7283 74.6392 88.8533 69.5452 96.8613 69.5452C102.563 69.5452 106.66 71.5191 109.616 76.6912L102.634 81.1542C101.097 78.4122 99.4363 77.3312 96.8613 77.3312C94.2333 77.3312 92.5693 78.9882 92.5693 81.1542C92.5693 83.834 94.2363 84.917 98.0823 86.574L100.324 87.529C107.949 90.777 112.248 94.094 112.248 101.55C112.248 109.584 105.905 113.985 97.3893 113.985C89.0593 113.985 84.3273 109.805 81.6943 104.631L88.7433 99.949ZM56.5613 100.178C57.9673 102.693 60.1033 104.631 63.1763 104.631C66.1133 104.631 67.8063 103.469 67.8063 98.956L67.8063 69.5425L77.0643 69.5425L77.0643 100.378C77.0643 109.73 71.6393 113.985 63.7173 113.985C56.5593 113.985 51.3923 109.136 49.2853 104.631L56.5613 100.178Z" fill="#000001" fill-rule="nonzero" opacity="1" stroke="none"/>
<g opacity="1">
<path d="M173.512 17.1593L173.512 65.9382C173.512 71.7651 173.105 76.1111 172.291 78.9758C171.477 82.2308 170.094 84.9808 168.141 87.2278C164.332 91.6868 159.286 93.9168 153.004 93.9168C148.251 93.9168 143.808 92.6798 139.674 90.2058L145.24 80.4888C148.007 82.3448 150.595 83.2718 153.004 83.2718C156.389 83.2718 158.733 81.9868 160.035 79.4148C161.402 76.8431 162.086 72.3511 162.086 65.9382L162.086 17.1593L173.512 17.1593Z" fill="#000001" fill-rule="nonzero" opacity="1" stroke="none"/>
<path d="M224.537 44.9913L235.572 44.9913L235.572 92.5498L224.537 92.5498L224.537 87.5688C220.012 91.8008 215.146 93.9168 209.938 93.9168C203.362 93.9168 197.926 91.5408 193.629 86.7878C189.365 81.9378 187.232 75.8831 187.232 68.6241C187.232 61.4951 189.365 55.5542 193.629 50.8018C197.893 46.0492 203.232 43.6729 209.645 43.6729C215.178 43.6729 220.143 45.9516 224.537 50.5089L224.537 44.9913ZM198.463 68.6241C198.463 73.1811 199.684 76.8921 202.125 79.7568C204.632 82.6538 207.789 84.1028 211.598 84.1028C215.667 84.1028 218.954 82.7028 221.461 79.9028C223.967 77.0061 225.221 73.3282 225.221 68.8681C225.221 64.4091 223.967 60.7301 221.461 57.8331C218.954 55.0011 215.699 53.5851 211.695 53.5851C207.919 53.5851 204.762 55.0171 202.223 57.8821C199.716 60.7791 198.463 64.3601 198.463 68.6241Z" fill="#000001" fill-rule="nonzero" opacity="1" stroke="none"/>
<path d="M256.227 44.9913L268.531 71.7002L280.787 44.9913L293.141 44.9913L268.434 95.8208L243.922 44.9913L256.227 44.9913Z" fill="#000001" fill-rule="nonzero" opacity="1" stroke="none"/>
<path d="M333.912 44.9913L344.947 44.9913L344.947 92.5498L333.912 92.5498L333.912 87.5688C329.387 91.8008 324.521 93.9168 319.313 93.9168C312.737 93.9168 307.301 91.5408 303.004 86.7878C298.74 81.9378 296.607 75.8831 296.607 68.6241C296.607 61.4951 298.74 55.5542 303.004 50.8018C307.268 46.0492 312.607 43.6729 319.02 43.6729C324.553 43.6729 329.518 45.9516 333.912 50.5089L333.912 44.9913ZM307.838 68.6241C307.838 73.1811 309.059 76.8921 311.5 79.7568C314.007 82.6538 317.164 84.1028 320.973 84.1028C325.042 84.1028 328.329 82.7028 330.836 79.9028C333.342 77.0061 334.596 73.3282 334.596 68.8681C334.596 64.4091 333.342 60.7301 330.836 57.8331C328.329 55.0011 325.074 53.5851 321.07 53.5851C317.294 53.5851 314.137 55.0171 311.598 57.8821C309.091 60.7791 307.838 64.3601 307.838 68.6241Z" fill="#000001" fill-rule="nonzero" opacity="1" stroke="none"/>
<path d="M403.541 28.3898L394.313 33.8585C392.587 30.8637 390.943 28.9106 389.381 27.9991C387.753 26.9574 385.654 26.4366 383.082 26.4366C379.925 26.4366 377.304 27.3318 375.221 29.1222C373.137 30.88 372.096 33.0936 372.096 35.7628C372.096 39.4412 374.83 42.4035 380.299 44.6495L387.818 47.7257C393.938 50.1996 398.414 53.2191 401.246 56.7832C404.078 60.3481 405.494 64.7181 405.494 69.8941C405.494 76.8271 403.183 82.5558 398.561 87.0808C393.906 91.6378 388.128 93.9168 381.227 93.9168C374.684 93.9168 369.28 91.9798 365.016 88.1058C360.816 84.2328 358.196 78.7798 357.154 71.7491L368.678 69.2101C369.199 73.6371 370.11 76.6972 371.412 78.3898C373.756 81.6448 377.174 83.2718 381.666 83.2718C385.214 83.2718 388.16 82.0838 390.504 79.7078C392.848 77.3321 394.02 74.3211 394.02 70.6751C394.02 69.2101 393.816 67.8671 393.409 66.6462C393.002 65.4262 392.368 64.3031 391.505 63.2772C390.642 62.2521 389.527 61.2922 388.16 60.3962C386.793 59.5011 385.165 58.6471 383.277 57.8331L376.002 54.8061C365.683 50.4438 360.523 44.0636 360.523 35.6651C360.523 30.0011 362.688 25.2648 367.018 21.4562C371.347 17.615 376.734 15.6944 383.18 15.6944C391.871 15.6944 398.658 19.9262 403.541 28.3898Z" fill="#000001" fill-rule="nonzero" opacity="1" stroke="none"/>
<path d="M454.127 47.0422L454.127 61.6421C451.62 58.5821 449.374 56.4821 447.389 55.3431C445.436 54.1711 443.141 53.5851 440.504 53.5851C436.37 53.5851 432.936 55.0341 430.201 57.9311C427.467 60.8282 426.1 64.4571 426.1 68.8192C426.1 73.2791 427.418 76.9412 430.055 79.8058C432.724 82.6698 436.126 84.1028 440.26 84.1028C442.897 84.1028 445.224 83.5328 447.242 82.3938C449.195 81.2868 451.49 79.1378 454.127 75.9481L454.127 90.4498C449.667 92.7608 445.208 93.9168 440.748 93.9168C433.391 93.9168 427.239 91.5408 422.291 86.7878C417.343 82.0028 414.869 76.0621 414.869 68.9661C414.869 61.8691 417.376 55.8801 422.389 50.9972C427.402 46.1143 433.554 43.6729 440.846 43.6729C445.533 43.6729 449.96 44.796 454.127 47.0422Z" fill="#000001" fill-rule="nonzero" opacity="1" stroke="none"/>
<path d="M464.772 44.9913L475.758 44.9913L475.758 49.2393C477.776 47.1235 479.566 45.6749 481.129 44.8937C482.724 44.0799 484.612 43.6729 486.793 43.6729C489.69 43.6729 492.717 44.6171 495.875 46.505L490.846 56.5632C488.762 55.0662 486.728 54.3171 484.742 54.3171C478.753 54.3171 475.758 58.8421 475.758 67.8921L475.758 92.5498L464.772 92.5498L464.772 44.9913Z" fill="#000001" fill-rule="nonzero" opacity="1" stroke="none"/>
<path d="M514.674 44.9913L514.674 92.5498L503.688 92.5498L503.688 44.9913L514.674 44.9913ZM502.027 25.216C502.027 23.2953 502.727 21.6352 504.127 20.2354C505.527 18.8357 507.203 18.1358 509.156 18.1358C511.142 18.1358 512.835 18.8357 514.234 20.2354C515.634 21.6026 516.334 23.2791 516.334 25.2648C516.334 27.2504 515.634 28.9431 514.234 30.3429C512.867 31.7426 511.191 32.4425 509.205 32.4425C507.219 32.4425 505.527 31.7426 504.127 30.3429C502.727 28.9431 502.027 27.2341 502.027 25.216Z" fill="#000001" fill-rule="nonzero" opacity="1" stroke="none"/>
<path d="M539.576 118.429L528.59 118.429L528.59 44.9913L539.576 44.9913L539.576 50.1672C543.906 45.8377 548.821 43.6729 554.322 43.6729C560.865 43.6729 566.253 46.0818 570.484 50.8995C574.781 55.6852 576.93 61.7231 576.93 69.0151C576.93 76.1441 574.798 82.0838 570.533 86.8368C566.301 91.5568 560.963 93.9168 554.518 93.9168C548.951 93.9168 543.971 91.6868 539.576 87.2278L539.576 118.429ZM565.699 69.0632C565.699 64.5061 564.462 60.7952 561.988 57.9311C559.482 55.0341 556.324 53.5851 552.516 53.5851C548.479 53.5851 545.208 54.9851 542.701 57.7841C540.195 60.5841 538.941 64.2621 538.941 68.8192C538.941 73.2791 540.195 76.9571 542.701 79.8538C545.175 82.6868 548.43 84.1028 552.467 84.1028C556.275 84.1028 559.417 82.6698 561.891 79.8058C564.43 76.9412 565.699 73.3601 565.699 69.0632Z" fill="#000001" fill-rule="nonzero" opacity="1" stroke="none"/>
<path d="M600.758 55.2451L600.758 92.5498L589.772 92.5498L589.772 55.2451L585.084 55.2451L585.084 44.9913L589.772 44.9913L589.772 27.5597L600.758 27.5597L600.758 44.9913L609.303 44.9913L609.303 55.2451L600.758 55.2451Z" fill="#000001" fill-rule="nonzero" opacity="1" stroke="none"/>
</g>
</g>
</svg>
