<?xml version="1.0" encoding="UTF-8" standalone="no"?>
<svg height="150px" stroke-miterlimit="10" version="1.1" viewBox="0 0 557.944 153.799" width="150px" xml:space="preserve" xmlns="http://www.w3.org/2000/svg" xmlns:xlink="http://www.w3.org/1999/xlink">
<defs/>
<g id="Sans-titre">
<g opacity="1">
<path d="M533.839 40.3381L555.259 40.4561C555.259 40.4561 515.435 94.4201 512.183 98.8181C511.127 100.242 509.523 101.778 508.709 103.682C506.652 108.468 504.54 118.967 504.54 118.967L484.941 119.065C484.941 119.065 487.991 108.121 487.865 102.292C487.755 97.2001 485.155 92.1141 483.697 87.0071C482.223 81.8371 480.222 71.7211 480.222 71.7211L500.372 71.7211L503.151 82.8381L533.839 40.3381" fill="#1a1918" fill-rule="evenodd" opacity="1" stroke="none"/>
<path d="M493.278 41.6831C497.231 44.0661 499.657 57.2121 499.657 57.2121C499.657 57.2121 478.973 57.5171 467.717 57.5171L457.99 57.5171L446.178 108.931L428.114 108.931C428.114 108.931 439.356 53.0571 442.01 42.9271C442.87 39.6471 447.902 40.2101 456.399 40.2101L469.968 40.2101C478.73 40.2101 488.971 39.0911 493.278 41.6831M409.181 66.7231C409.181 66.7231 409.744 63.4231 407.271 59.6011C405.158 56.3431 403.207 55.5851 397.648 55.4111C381.953 54.9181 382.258 66.5491 382.258 66.5491L409.181 66.7231ZM426.203 53.4031C428.503 61.7001 424.119 81.1951 424.119 81.1951C424.119 81.1951 401.225 80.8131 388.685 81.1951C384.786 81.3141 380.119 80.7711 378.958 82.5851C377.325 85.1271 379.555 89.0401 381.445 90.6931C383.62 92.5961 387.857 92.8131 389.38 93.0061C399.558 94.2991 420.86 93.3401 420.86 93.3401L417.17 109.68C417.17 109.68 387.067 111.19 372.01 107.596C369.037 106.888 366.25 105.457 364.367 103.428C363.853 102.873 363.407 102.116 362.921 101.462C362.533 100.94 361.401 99.2251 360.893 97.8691C357.454 88.7051 361.296 71.1491 365.062 61.7411C365.499 60.6511 366.048 59.2681 366.626 58.0931C367.348 56.6281 367.959 54.9741 368.536 54.0981C368.924 53.4941 369.405 53.1051 369.808 52.5351C370.273 51.8611 370.814 51.2081 371.315 50.6251C372.705 49.0131 374.282 47.8731 376.179 46.4571C382.452 41.7591 393.805 38.1121 407.444 39.5081C412.579 40.0361 420.334 41.8701 424.119 47.1511C425.133 48.5611 425.634 51.3611 426.203 53.4041L426.203 53.4031ZM343.35 40.1461L360.866 40.0431C360.866 40.0431 351.104 86.3501 346.129 108.931L325.979 108.931C311.897 108.931 299.356 110.675 294.02 100.593C288.844 90.8041 293.784 74.7061 296.104 63.7691C297.744 56.0291 301.198 40.2091 301.198 40.2091L319.346 40.0431C319.346 40.0431 314.218 64.6731 312.084 76.9711C311.32 81.3761 309.744 85.5241 311.39 88.7811C312.953 91.8811 315.142 92.1031 321.811 92.2561C323.924 92.3061 330.844 92.2561 330.844 92.2561L343.35 40.1461M261.365 73.4961C263.199 66.9801 265.874 59.9141 265.534 54.0421C265.166 47.7621 259.9 42.0441 256.502 40.8421C246.268 37.2291 236.687 42.2801 232.879 46.4001C227.953 51.7361 226.285 57.9691 224.541 66.5501C223.243 72.9201 222.179 79.6451 224.541 84.6131C228.723 93.3961 241.765 91.4781 255.807 91.5621C257.891 85.9761 259.614 79.7021 261.365 73.4961ZM285.683 47.7901C287.683 62.3381 280.007 78.3961 274.719 92.3601C280.111 92.8471 284.836 92.2851 285.176 92.6871C285.53 93.2081 281.562 109.355 280.179 109.397C275.9 109.508 261.72 109.626 255.807 109.626C236.512 109.626 218.462 110.883 209.257 101.289C205.519 97.3911 202.934 90.7061 202.308 86.0031C201.266 78.1521 202.572 69.5081 204.393 62.3811C206.04 55.9461 208.151 49.8741 211.341 44.3151C219.449 30.1631 233.553 19.6581 257.196 22.0831C261.782 22.5551 268.368 24.5631 272.482 26.9461C272.766 27.1131 273.761 27.9051 273.989 28.0441C279.548 31.5811 284.613 40.0221 285.683 47.7901ZM200.314 40.2301C199.147 45.5451 197.98 51.5701 196.75 56.8221L177.296 56.8221C178.803 51.0001 179.957 45.2121 181.465 40.1471C187.69 40.1471 193.478 40.2301 200.315 40.2301M176.601 61.6861L195.361 61.6861C192.908 75.2621 188.051 97.1611 184.244 112.405C181.861 121.945 180.27 128.906 173.822 133.943C173.245 134.395 172.912 134.18 172.432 134.638C171.244 135.771 165.748 137.085 162.706 137.417C157.759 137.953 152.166 137.487 146.086 137.362C147.677 131.547 149.477 124.564 150.895 119.352C165.715 121.146 166.09 107.138 168.959 93.6461C170.619 85.8501 175.65 64.8121 176.601 61.6861" fill="#1a1918" fill-rule="evenodd" opacity="1" stroke="none"/>
<g opacity="1">
<path d="M126.741 107.335L126.173 108.806C116.501 127.642 99.3613 139.197 74.9144 139.707C63.4859 139.943 52.5968 137.01 45.4833 133.822C30.1324 126.924 17.2199 114.133 10.1685 100.467C0.0531724 80.8758-1.77109 53.6234 19.2616 33.2684C19.5864 33.2684 16.7102 37.6822 17.0349 37.6822L16.456 39.5658C1.29994 87.0165 47.9952 127.681 93.3872 123.03C104.296 121.912 118.207 115.938 126.741 107.335" fill="#21609b" fill-rule="evenodd" opacity="1" stroke="none"/>
<path d="M99.2723 87.714C110.692 87.7916 122.621 82.4544 129.685 74.9611C123.505 90.6481 105.611 100.731 81.6156 97.5244C61.5233 94.836 42.384 74.618 40.4129 54.359C38.9713 39.6152 44.1095 30.8158 52.5771 20.1413C49.6345 25.7242 48.5346 30.0293 48.2607 32.7756C45.0442 64.6692 73.7383 87.546 99.2723 87.714" fill="#21609b" fill-rule="evenodd" opacity="1" stroke="none"/>
<path d="M128.537 48.0997C126.762 52.1719 116.541 59.8615 112.027 60.823C94.1525 64.6311 82.7057 56.155 76.709 46.5099C75.8181 45.0696 74.1703 41.1359 73.8752 40.1348C71.5497 32.2278 72.6186 20.2684 79.5556 14.0783C77.4659 19.9648 77.1609 26.8016 78.2608 31.2465C78.9273 33.9334 80.9577 38.6254 82.9895 41.5764C86.686 46.9518 89.0313 48.2579 93.7798 51.1129C95.9189 52.3978 98.2134 53.4285 99.2046 53.7109C103.707 55.0367 113.214 58.5286 128.538 48.0997" fill="#21609b" fill-rule="evenodd" opacity="1" stroke="none"/>
</g>
</g>
</g>
</svg>
