<?xml version="1.0" encoding="UTF-8" standalone="no"?>
<svg height="150px" stroke-miterlimit="10"  version="1.1" viewBox="0 0 438.133 117.105" width="150px" xml:space="preserve" xmlns="http://www.w3.org/2000/svg" xmlns:xlink="http://www.w3.org/1999/xlink">
<defs/>
<g id="Sans-titre">
<path d="M35.4337 12.7826C31.0321 7.56032 27.2419 2.25642 26.4675 1.15482C26.386 1.07322 26.2637 1.07322 26.1822 1.15482C25.4079 2.25642 21.6176 7.56032 17.216 12.7826C-20.564 60.9664 23.1664 93.4834 23.1664 93.4834L23.5331 93.7284C23.8591 98.7464 24.6743 105.968 24.6743 105.968L26.3045 105.968L27.9347 105.968C27.9347 105.968 28.7498 98.7874 29.0759 93.7284L29.4426 93.4424C29.4834 93.4834 73.2143 60.9664 35.4337 12.7826ZM26.3045 92.7904C26.3045 92.7904 24.3483 91.1174 23.8184 90.2604L23.8184 90.1794L26.1822 37.711C26.1822 37.5478 26.4268 37.5478 26.4268 37.711L28.7905 90.1794L28.7905 90.2604C28.2607 91.1174 26.3045 92.7904 26.3045 92.7904Z" fill="#00684a" fill-rule="nonzero" opacity="1" stroke="none"/>
<path d="M108.143 81.7238L89.9203 37.5341L89.8793 37.4121L75.7013 37.4121L75.7013 40.3824L77.9893 40.3824C78.6843 40.3824 79.3383 40.6673 79.8283 41.1556C80.3183 41.6439 80.5633 42.2951 80.5633 42.9867L80.1553 87.4609C80.1553 88.8444 79.0113 89.9834 77.6223 90.0244L75.2933 90.0654L75.2933 92.9944L89.1033 92.9944L89.1033 90.0654L87.6733 90.0244C86.2843 89.9834 85.1403 88.8444 85.1403 87.4609L85.1403 45.5502L104.997 92.9944C105.283 93.6864 105.937 94.1344 106.672 94.1344C107.408 94.1344 108.061 93.6864 108.347 92.9944L127.755 46.608L128.041 87.4609C128.041 88.8854 126.897 90.0244 125.467 90.0654L123.996 90.0654L123.996 92.9944L140.176 92.9944L140.176 90.0654L137.97 90.0654C136.581 90.0654 135.437 88.8854 135.396 87.5017L135.273 43.0271C135.273 41.6031 136.417 40.4638 137.807 40.4231L140.176 40.3824L140.176 37.4121L126.366 37.4121L108.143 81.7238Z" fill="#00684a" fill-rule="nonzero" opacity="1" stroke="none"/>
<path d="M235.204 89.2924C234.753 88.8454 234.507 88.2354 234.507 87.5046L234.507 65.7196C234.507 61.574 233.278 58.3225 230.82 56.0059C228.404 53.6893 225.044 52.5107 220.866 52.5107C215.008 52.5107 210.379 54.8682 207.143 59.5014C207.102 59.5826 206.979 59.6234 206.856 59.6234C206.733 59.6234 206.651 59.5418 206.651 59.4202L205.135 53.6081L202.595 53.6081L196.082 57.3068L196.082 59.3386L197.762 59.3386C198.54 59.3386 199.195 59.5418 199.646 59.9483C200.097 60.3547 200.342 60.9644 200.342 61.8181L200.342 87.4638C200.342 88.1954 200.097 88.8054 199.646 89.2524C199.195 89.6994 198.581 89.9424 197.844 89.9424L196.205 89.9424L196.205 92.9104L211.198 92.9104L211.198 89.9424L209.56 89.9424C208.822 89.9424 208.208 89.6994 207.757 89.2524C207.307 88.8054 207.061 88.1954 207.061 87.4638L207.061 70.4749C207.061 68.3207 207.552 66.1669 208.454 64.0535C209.396 61.9805 210.788 60.2331 212.632 58.8918C214.475 57.5504 216.687 56.9004 219.227 56.9004C222.095 56.9004 224.266 57.7945 225.618 59.5826C226.97 61.3708 227.666 63.6874 227.666 66.4513L227.666 87.423C227.666 88.1544 227.42 88.7644 226.97 89.2114C226.519 89.6584 225.905 89.9024 225.167 89.9024L223.529 89.9024L223.529 92.8694L238.522 92.8694L238.522 89.9024L236.883 89.9024C236.269 89.9834 235.695 89.7394 235.204 89.2924Z" fill="#00684a" fill-rule="nonzero" opacity="1" stroke="none"/>
<path d="M372.184 40.7631C368.04 38.5563 363.408 37.4121 358.41 37.4121L338.908 37.4121L338.908 40.3954L340.817 40.3954C341.549 40.3954 342.199 40.6814 342.849 41.3353C343.458 41.9482 343.783 42.6431 343.783 43.3785L343.783 87.3516C343.783 88.0874 343.458 88.7814 342.849 89.3944C342.24 90.0074 341.549 90.3344 340.817 90.3344L338.908 90.3344L338.908 93.3184L358.41 93.3184C363.408 93.3184 368.04 92.1734 372.184 89.9674C376.328 87.7601 379.701 84.4906 382.139 80.3225C384.577 76.1541 385.836 71.1274 385.836 65.4058C385.836 59.6847 384.577 54.6988 382.139 50.4896C379.66 46.2395 376.328 42.97 372.184 40.7631ZM377.994 65.3242C377.994 70.5553 377.06 74.9686 375.231 78.5241C373.403 82.0797 370.965 84.7358 367.958 86.4522C364.952 88.1694 361.62 89.0274 358.045 89.0274L354.103 89.0274C353.372 89.0274 352.722 88.7414 352.072 88.0874C351.462 87.474 351.138 86.7795 351.138 86.0437L351.138 44.5639C351.138 43.8282 351.422 43.1744 352.072 42.5203C352.681 41.9074 353.372 41.5805 354.103 41.5805L358.045 41.5805C361.62 41.5805 364.952 42.4387 367.958 44.155C370.965 45.8714 373.403 48.528 375.231 52.0835C377.06 55.6386 377.994 60.0931 377.994 65.3242Z" fill="#00684a" fill-rule="nonzero" opacity="1" stroke="none"/>
<path d="M431.936 68.3076C430.132 66.2232 426.651 64.466 422.558 63.5258C428.21 60.7061 431.116 56.742 431.116 51.6338C431.116 48.8548 430.381 46.3619 428.904 44.2367C427.431 42.1118 425.341 40.3953 422.681 39.2102C420.016 38.0251 416.903 37.4121 413.381 37.4121L391.305 37.4121L391.305 40.3954L393.066 40.3954C393.803 40.3954 394.459 40.6814 395.114 41.3353C395.728 41.9482 396.056 42.6431 396.056 43.3785L396.056 87.3516C396.056 88.0874 395.728 88.7814 395.114 89.3944C394.5 90.0074 393.803 90.3344 393.066 90.3344L391.141 90.3344L391.141 93.3184L415.103 93.3184C418.747 93.3184 422.146 92.7054 425.219 91.4784C428.292 90.2534 430.748 88.4554 432.511 86.0845C434.311 83.7144 435.213 80.8126 435.213 77.4615C435.172 73.8652 434.107 70.8002 431.936 68.3076ZM404.453 88.1274C403.838 87.5148 403.51 86.8203 403.51 86.0845L403.51 66.346L414.899 66.346C418.91 66.346 421.983 67.3674 424.113 69.4107C426.243 71.4543 427.308 74.1104 427.308 77.3799C427.308 79.3415 426.815 81.2623 425.917 83.0195C424.974 84.8179 423.579 86.2481 421.697 87.3516C419.853 88.4554 417.56 89.0274 414.899 89.0274L406.5 89.0274C405.763 89.0684 405.108 88.7414 404.453 88.1274ZM403.552 62.1364L403.552 44.6047C403.552 43.869 403.838 43.2153 404.493 42.5611C405.108 41.9482 405.804 41.6213 406.542 41.6213L411.949 41.6213C415.837 41.6213 418.706 42.6023 420.51 44.4819C422.31 46.4027 423.211 48.8548 423.211 51.879C423.211 54.9849 422.35 57.4778 420.673 59.3578C418.992 61.1966 416.454 62.1364 413.095 62.1364L403.552 62.1364Z" fill="#00684a" fill-rule="nonzero" opacity="1" stroke="none"/>
<path d="M178.127 55.1171C174.997 53.4069 171.501 52.5107 167.721 52.5107C163.941 52.5107 160.405 53.3661 157.316 55.1171C154.186 56.8277 151.706 59.3121 149.877 62.4481C148.048 65.5842 147.113 69.2499 147.113 73.3224C147.113 77.395 148.048 81.0607 149.877 84.1968C151.706 87.3328 154.186 89.8174 157.316 91.5274C160.446 93.2384 163.941 94.1344 167.721 94.1344C171.501 94.1344 175.037 93.2784 178.127 91.5274C181.257 89.8174 183.736 87.3328 185.565 84.1968C187.394 81.0607 188.329 77.395 188.329 73.3224C188.329 69.2499 187.394 65.5842 185.565 62.4481C183.736 59.3121 181.257 56.8686 178.127 55.1171ZM181.135 73.3224C181.135 78.3319 179.915 82.4045 177.476 85.3369C175.078 88.2694 171.786 89.7764 167.721 89.7764C163.657 89.7764 160.364 88.2694 157.966 85.3369C155.527 82.4045 154.308 78.3319 154.308 73.3224C154.308 68.3129 155.527 64.2404 157.966 61.308C160.364 58.3756 163.657 56.8686 167.721 56.8686C171.786 56.8686 175.078 58.3756 177.476 61.308C179.915 64.2808 181.135 68.3129 181.135 73.3224Z" fill="#00684a" fill-rule="nonzero" opacity="1" stroke="none"/>
<path d="M322.176 55.1171C319.046 53.4069 315.551 52.5107 311.771 52.5107C307.991 52.5107 304.454 53.3661 301.365 55.1171C298.235 56.8277 295.756 59.3121 293.927 62.4481C292.098 65.5842 291.163 69.2499 291.163 73.3224C291.163 77.395 292.098 81.0607 293.927 84.1968C295.756 87.3328 298.235 89.8174 301.365 91.5274C304.495 93.2384 307.991 94.1344 311.771 94.1344C315.551 94.1344 319.087 93.2784 322.176 91.5274C325.306 89.8174 327.786 87.3328 329.615 84.1968C331.444 81.0607 332.378 77.395 332.378 73.3224C332.378 69.2499 331.444 65.5842 329.615 62.4481C327.786 59.3121 325.265 56.8686 322.176 55.1171ZM325.184 73.3224C325.184 78.3319 323.964 82.4045 321.526 85.3369C319.128 88.2694 315.835 89.7764 311.771 89.7764C307.706 89.7764 304.414 88.2694 302.016 85.3369C299.577 82.4045 298.357 78.3319 298.357 73.3224C298.357 68.2721 299.577 64.2404 302.016 61.308C304.414 58.3756 307.706 56.8686 311.771 56.8686C315.835 56.8686 319.128 58.3756 321.526 61.308C323.924 64.2808 325.184 68.3129 325.184 73.3224Z" fill="#00684a" fill-rule="nonzero" opacity="1" stroke="none"/>
<path d="M264.083 52.5107C260.808 52.5107 257.82 53.2061 255.118 54.5972C252.417 55.9883 250.288 57.8708 248.773 60.2845C247.259 62.6575 246.481 65.3173 246.481 68.1403C246.481 70.6769 247.054 73.009 248.241 75.0959C249.388 77.1008 250.943 78.778 252.908 80.1691L247.054 88.1074C246.317 89.0884 246.236 90.3974 246.768 91.4614C247.341 92.5664 248.405 93.2214 249.633 93.2214L251.312 93.2214C249.674 94.3264 248.364 95.6354 247.463 97.1894C246.399 98.9494 245.867 100.79 245.867 102.672C245.867 106.191 247.423 109.096 250.493 111.264C253.522 113.433 257.779 114.537 263.142 114.537C266.867 114.537 270.428 113.924 273.662 112.737C276.937 111.551 279.598 109.791 281.562 107.5C283.568 105.209 284.592 102.427 284.592 99.2354C284.592 95.8804 283.364 93.5074 280.498 91.2164C278.042 89.2934 274.194 88.2704 269.405 88.2704L253.031 88.2704C252.99 88.2704 252.949 88.2294 252.949 88.2294C252.949 88.2294 252.908 88.1474 252.949 88.1074L257.206 82.3788C258.352 82.9105 259.417 83.2378 260.358 83.4422C261.34 83.6471 262.446 83.7287 263.674 83.7287C267.113 83.7287 270.224 83.0334 272.925 81.6422C275.627 80.2511 277.797 78.3691 279.352 75.9549C280.907 73.582 281.685 70.9226 281.685 68.0995C281.685 65.0716 280.212 59.548 276.2 56.7249C276.2 56.6841 276.241 56.6841 276.241 56.6841L285.042 57.6659L285.042 53.6154L270.96 53.6154C268.75 52.8788 266.458 52.5107 264.083 52.5107ZM268.995 78.0826C267.44 78.9008 265.761 79.3509 264.083 79.3509C261.341 79.3509 258.925 78.3691 256.879 76.4458C254.832 74.523 253.809 71.7 253.809 68.0995C253.809 64.4987 254.832 61.6756 256.879 59.7528C258.925 57.8296 261.341 56.8477 264.083 56.8477C265.803 56.8477 267.44 57.257 268.995 58.116C270.551 58.9342 271.82 60.2029 272.844 61.8801C273.826 63.5577 274.358 65.6446 274.358 68.0995C274.358 70.5953 273.867 72.6818 272.844 74.3186C271.861 75.9957 270.551 77.2644 268.995 78.0826ZM257.902 93.1804L268.995 93.1804C272.066 93.1804 274.031 93.7934 275.341 95.1034C276.65 96.4124 277.305 98.1714 277.305 100.217C277.305 103.204 276.118 105.659 273.744 107.5C271.37 109.341 268.177 110.282 264.247 110.282C260.808 110.282 257.943 109.505 255.855 108.032C253.767 106.559 252.703 104.309 252.703 101.445C252.703 99.6444 253.194 97.9674 254.177 96.4944C255.159 95.0214 256.346 93.9574 257.902 93.1804Z" fill="#00684a" fill-rule="nonzero" opacity="1" stroke="none"/>
</g>
</svg>
