<?xml version="1.0" encoding="UTF-8" standalone="no"?>
<svg  width="200px" height="150px" stroke-miterlimit="10" version="1.1" viewBox="0 0 263 153"  xml:space="preserve" xmlns="http://www.w3.org/2000/svg" xmlns:xlink="http://www.w3.org/1999/xlink">
<defs/>
<g id="Sans-titre">
<g opacity="1">
<clipPath id="ClipPath">
<path d="M5.22135 0.467788L255.221 0.467788L255.221 151.718L5.22135 151.718L5.22135 0.467788Z"/>
</clipPath>
<g clip-path="url(#ClipPath)">
<path d="M64.2317 39.9144L111.367 39.9144L111.367 43.6708L68.5546 43.6708L68.5546 71.952L108.815 71.952L108.815 75.7151L68.5546 75.7151L68.5546 106.77L111.855 106.77L111.855 110.527L64.2317 110.527L64.2317 39.9144ZM115.593 39.9144L120.599 39.9144L142.793 70.969L165.475 39.9144L196.334 0.467788L145.638 74.2307L171.764 110.527L166.556 110.527L142.793 77.4924L118.932 110.527L113.828 110.527L140.143 74.2307L115.593 39.9144ZM173.633 43.6708L173.633 39.9144L227.35 39.9144L227.35 43.6708L202.598 43.6708L202.598 110.527L198.281 110.527L198.281 43.6708L173.633 43.6708ZM5.26042 39.9144L10.6641 39.9144L85.1431 151.711L54.3619 110.533L9.77866 45.2529L9.58336 110.533L5.26693 110.533L5.26693 39.9144L5.26042 39.9144ZM226.907 105.637C226.029 105.637 225.364 104.947 225.364 104.062C225.364 103.176 226.029 102.492 226.907 102.492C227.799 102.492 228.457 103.176 228.457 104.062C228.457 104.947 227.799 105.637 226.907 105.637ZM231.152 101.497L233.47 101.497C233.496 102.753 234.413 103.599 235.755 103.599C237.259 103.599 238.111 102.688 238.111 100.988L238.111 90.2271L240.469 90.2271L240.469 101.002C240.469 104.062 238.704 105.826 235.781 105.826C233.04 105.826 231.152 104.114 231.152 101.497ZM243.548 101.359L245.878 101.359C246.074 102.805 247.487 103.723 249.518 103.723C251.406 103.723 252.793 102.747 252.793 101.392C252.793 100.233 251.907 99.53 249.902 99.0547L247.949 98.5795C245.208 97.9413 243.958 96.6068 243.958 94.3739C243.958 91.6588 246.165 89.8559 249.472 89.8559C252.552 89.8559 254.798 91.6588 254.935 94.2245L252.65 94.2245C252.428 92.8175 251.204 91.9455 249.44 91.9455C247.578 91.9455 246.341 92.844 246.341 94.2177C246.341 95.3047 247.142 95.9233 249.121 96.3858L250.787 96.8022C253.9 97.5317 255.182 98.8013 255.182 101.086C255.182 103.997 252.93 105.826 249.336 105.826C245.976 105.826 243.717 104.087 243.548 101.359Z" fill="#000000" fill-rule="nonzero" opacity="1" stroke="none"/>
</g>
</g>
</g>
</svg>
