<?xml version="1.0" encoding="UTF-8" standalone="no"?>
<svg width="200px" height="200px" stroke-miterlimit="10" version="1.1" viewBox="0 0 498 140" xml:space="preserve" xmlns="http://www.w3.org/2000/svg" xmlns:xlink="http://www.w3.org/1999/xlink">
<defs/>
<g id="Sans-titre">
<g opacity="1">
<path d="M392.265 39.2503C391.435 39.2503 390.628 39.4217 389.914 39.8258L367.316 52.8763C365.853 53.7192 364.964 55.3103 364.964 57.0035L364.964 83.057C364.964 84.7488 365.853 86.338 367.316 87.1829L373.217 90.5899C376.085 92.0029 377.142 91.9809 378.447 91.9809C382.692 91.9809 385.116 89.4048 385.116 84.9282L385.116 59.2101C385.116 58.8467 384.801 58.5866 384.445 58.5866L381.614 58.5866C381.251 58.5866 380.942 58.8467 380.942 59.2101L380.942 84.9282C380.942 86.9121 378.875 88.908 375.521 87.2309L369.379 83.6325C369.162 83.5145 368.995 83.3057 368.995 83.057L368.995 57.0028C368.995 56.7561 369.16 56.5047 369.379 56.3793L391.93 43.3775C392.137 43.2563 392.394 43.2563 392.601 43.3775L415.152 56.38C415.367 56.5093 415.536 56.7487 415.536 57.0041L415.536 83.0577C415.536 83.3064 415.411 83.5612 415.2 83.6812L392.601 96.6836C392.408 96.799 392.141 96.799 391.93 96.6836L386.124 93.2293C385.944 93.1319 385.728 93.1319 385.548 93.2293C383.946 94.1375 383.644 94.2429 382.141 94.7644C381.771 94.8938 381.209 95.0945 382.333 95.7247L389.914 100.186C390.629 100.598 391.441 100.813 392.266 100.81C393.091 100.815 393.902 100.6 394.616 100.187L417.215 87.1835C418.678 86.3333 419.566 84.7495 419.566 83.0577L419.566 57.0035C419.566 55.311 418.678 53.7225 417.215 52.8776L394.616 39.8272C393.908 39.4224 393.096 39.251 392.266 39.251L392.265 39.2503Z" fill="#83cd29" fill-rule="nonzero" opacity="1" stroke="none"/>
<path d="M398.311 57.8671C391.875 57.8671 388.043 60.6058 388.043 65.1605C388.043 70.1006 391.847 71.4583 398.023 72.0692C405.412 72.7927 405.988 73.8777 405.988 75.3321C405.988 77.8548 403.976 78.9305 399.223 78.9305C393.25 78.9305 391.938 77.4394 391.498 74.4685C391.446 74.1498 391.2 73.8924 390.874 73.8924L387.947 73.8924C387.587 73.8924 387.276 74.2031 387.276 74.5646C387.276 78.3677 389.344 82.865 399.223 82.865C406.374 82.865 410.498 80.0581 410.498 75.1401C410.498 70.2653 407.167 68.9563 400.23 68.0393C393.221 67.1117 392.553 66.6576 392.553 65.0165C392.553 63.6614 393.12 61.8489 398.311 61.8489C402.948 61.8489 404.662 62.8492 405.364 65.9761C405.425 66.2695 405.684 66.5036 405.988 66.5036L408.915 66.5036C409.095 66.5036 409.27 66.3929 409.395 66.2635C409.517 66.1254 409.604 65.9701 409.587 65.784C409.133 60.3998 405.543 57.8671 398.311 57.8671Z" fill="#83cd29" fill-rule="nonzero" opacity="1" stroke="none"/>
</g>
<path d="M259.407 21.9041C259.154 21.9043 258.906 21.9702 258.687 22.0955C258.244 22.355 257.97 22.8294 257.967 23.3432L257.967 60.0485C257.967 60.4086 257.8 60.7313 257.488 60.9121C257.177 61.0934 256.792 61.0934 256.48 60.9121L250.483 57.4577C249.592 56.9425 248.494 56.9425 247.604 57.4577L223.662 71.2757C222.767 71.7925 222.222 72.7855 222.222 73.8191L222.222 101.456C222.222 102.488 222.767 103.434 223.662 103.951L247.604 117.769C248.494 118.286 249.592 118.286 250.483 117.769L274.425 103.951C275.317 103.437 275.867 102.485 275.865 101.456L275.865 32.5559C275.863 31.5021 275.295 30.5305 274.378 30.0124L260.127 22.0475C259.903 21.9228 259.655 21.9008 259.407 21.9041ZM105.389 56.4021C104.933 56.4201 104.504 56.5001 104.094 56.7375L80.1513 70.5562C79.2585 71.0691 78.7093 72.0213 78.7122 73.0509L78.7603 110.141C78.7603 110.656 79.0263 111.136 79.4798 111.388C79.9228 111.654 80.4765 111.654 80.9195 111.388L95.1217 103.232C96.0213 102.697 96.6088 101.767 96.6088 100.736L96.6088 83.4152C96.6088 82.3816 97.1522 81.4333 98.0485 80.9198L104.094 77.4175C104.531 77.1634 105.028 77.0307 105.533 77.0334C106.027 77.0334 106.534 77.1568 106.972 77.4175L113.018 80.9198C113.912 81.4323 114.462 82.3851 114.458 83.4152L114.458 100.736C114.458 101.767 115.051 102.703 115.945 103.231L130.147 111.388C130.59 111.654 131.144 111.654 131.587 111.388C132.032 111.13 132.307 110.655 132.307 110.14L132.354 73.0509C132.36 72.0205 131.81 71.067 130.915 70.5562L106.972 56.7375C106.568 56.5001 106.137 56.4208 105.677 56.4021L105.389 56.4021ZM320.534 56.7375C320.034 56.7375 319.544 56.8642 319.095 57.1216L295.153 70.9403C294.261 71.4536 293.711 72.4054 293.713 73.435L293.713 101.072C293.713 102.111 294.299 103.053 295.2 103.567L318.951 117.098C319.828 117.598 320.899 117.636 321.782 117.144L336.176 109.132C336.633 108.879 336.942 108.405 336.944 107.885C336.949 107.369 336.673 106.891 336.224 106.637L312.138 92.8186C311.687 92.5612 311.37 92.0404 311.37 91.5229L311.37 82.8871C311.37 82.3703 311.69 81.8968 312.138 81.6394L319.623 77.3208C320.068 77.0631 320.617 77.0631 321.062 77.3208L328.547 81.6394C328.993 81.8958 329.267 82.3717 329.267 82.8864L329.267 89.6997C329.265 90.2145 329.54 90.6907 329.986 90.9467C330.435 91.2062 330.978 91.2068 331.425 90.9467L345.772 82.5997C346.663 82.0843 347.211 81.1334 347.212 80.1043L347.212 73.4357C347.212 72.4054 346.665 71.4578 345.772 70.9403L321.974 57.1216C321.536 56.8686 321.04 56.7362 320.534 56.7382L320.534 56.7375ZM248.947 77.3695C249.072 77.3695 249.219 77.4002 249.331 77.4648L257.536 82.2149C257.759 82.3436 257.92 82.5817 257.92 82.8384L257.92 92.3385C257.92 92.5966 257.76 92.834 257.536 92.9627L249.331 97.7127C249.108 97.8401 248.834 97.8401 248.611 97.7127L240.407 92.9627C240.184 92.8333 240.023 92.5966 240.023 92.3385L240.023 82.8384C240.023 82.581 240.184 82.3449 240.407 82.2149L248.611 77.4655C248.712 77.4028 248.829 77.3697 248.947 77.3701L248.947 77.3695L248.947 77.3695Z" fill="#404137" fill-rule="nonzero" opacity="1" stroke="none"/>
<path d="M177.312 39.5127C176.813 39.5127 176.32 39.6394 175.873 39.8968L151.931 53.6675C151.035 54.183 150.491 55.1779 150.491 56.2102L150.491 83.8469C150.491 84.8805 151.036 85.8248 151.931 86.3423L175.873 100.16C176.763 100.677 177.862 100.677 178.752 100.16L202.694 86.3423C203.586 85.8281 204.135 84.8765 204.133 83.8469L204.133 56.2102C204.133 55.1766 203.589 54.183 202.694 53.6675L178.752 39.8968C178.314 39.6441 177.818 39.5115 177.312 39.5127ZM320.486 64.1752C320.391 64.1752 320.285 64.1752 320.199 64.2232L315.593 66.91C315.418 67.0071 315.308 67.1901 315.305 67.3901L315.305 72.6676C315.305 72.8664 315.419 73.0484 315.593 73.1478L320.199 75.7865C320.371 75.8866 320.556 75.8866 320.726 75.7865L325.332 73.1471C325.506 73.0497 325.616 72.867 325.62 72.6676L325.62 67.3894C325.616 67.1899 325.506 67.0076 325.332 66.91L320.726 64.2225C320.641 64.1725 320.582 64.1758 320.486 64.1758L320.486 64.1752Z" fill="#83cd29" fill-rule="nonzero" opacity="1" stroke="none"/>
</g>
</svg>
