<?xml version="1.0" encoding="UTF-8" standalone="no"?>
<svg height="150px" stroke-miterlimit="10" version="1.1" viewBox="0 0 427.729 158.682" width="150px" xml:space="preserve" xmlns="http://www.w3.org/2000/svg" xmlns:xlink="http://www.w3.org/1999/xlink">
<defs/>
<g id="Sans-titre">
<path d="M192.918 106.163L192.918 66.4628L193.618 66.4628L222.218 106.163L231.218 106.163L231.218 47.8628L221.218 47.8628L221.218 87.4628L220.518 87.4628L191.918 47.8628L182.918 47.8628L182.918 106.163L192.918 106.163L192.918 106.163ZM259.518 107.063C272.718 107.063 280.818 98.4628 280.818 84.0628C280.818 69.7628 272.718 61.0628 259.518 61.0628C246.418 61.0628 238.218 69.7628 238.218 84.0628C238.318 98.4628 246.318 107.063 259.518 107.063ZM259.518 98.6628C252.518 98.6628 248.518 93.3628 248.518 84.0628C248.518 74.8628 252.518 69.4628 259.518 69.4628C266.518 69.4628 270.518 74.8628 270.518 84.0628C270.518 93.3628 266.518 98.6628 259.518 98.6628ZM289.918 51.1628L289.918 62.2628L282.918 62.2628L282.918 70.2628L289.918 70.2628L289.918 94.3628C289.918 102.963 293.918 106.363 304.118 106.363C306.018 106.363 307.918 106.163 309.418 105.863L309.418 98.0628C308.218 98.1628 307.418 98.2628 306.018 98.2628C301.818 98.2628 299.918 96.3628 299.918 91.9628L299.918 70.2628L309.418 70.2628L309.418 62.2628L299.918 62.2628L299.918 51.1628L289.918 51.1628L289.918 51.1628ZM315.418 106.163L325.418 106.163L325.418 61.9628L315.418 61.9628L315.418 106.163ZM320.418 54.6628C323.718 54.6628 326.418 51.9628 326.418 48.6628C326.418 45.2628 323.718 42.5628 320.418 42.5628C317.118 42.5628 314.418 45.2628 314.418 48.6628C314.418 51.9628 317.118 54.6628 320.418 54.6628L320.418 54.6628ZM352.818 107.063C366.018 107.063 374.118 98.4628 374.118 84.0628C374.118 69.7628 366.018 61.0628 352.818 61.0628C339.718 61.0628 331.518 69.7628 331.518 84.0628C331.518 98.4628 339.518 107.063 352.818 107.063ZM352.818 98.6628C345.818 98.6628 341.818 93.3628 341.818 84.0628C341.818 74.8628 345.818 69.4628 352.818 69.4628C359.718 69.4628 363.818 74.8628 363.818 84.0628C363.718 93.3628 359.718 98.6628 352.818 98.6628ZM380.018 106.163L390.018 106.163L390.018 80.4628C390.018 73.9628 393.818 69.8628 399.718 69.8628C405.818 69.8628 408.618 73.2628 408.618 79.9628L408.618 106.163L418.618 106.163L418.618 77.5628C418.618 66.9628 413.218 61.0628 403.418 61.0628C396.818 61.0628 392.418 64.0628 390.318 69.0628L389.618 69.0628L389.618 61.9628L379.918 61.9628C380.018 61.9628 380.018 106.163 380.018 106.163Z" fill="#000000" fill-rule="nonzero" opacity="1" stroke="none"/>
<path d="M29.7177 29.8628C34.4177 33.6628 36.1177 33.3628 44.9177 32.7628L127.818 27.7628C129.618 27.7628 128.118 25.9628 127.518 25.7628L113.718 15.8628C111.118 13.8628 107.518 11.4628 100.818 12.0628L20.6177 17.9628C17.7177 18.2628 17.1177 19.7628 18.3177 20.8628L29.7177 29.8628ZM34.7177 49.1628L34.7177 136.363C34.7177 141.063 37.0177 142.763 42.3177 142.463L133.418 137.163C138.718 136.863 139.318 133.663 139.318 129.863L139.318 43.2628C139.318 39.4628 137.818 37.3628 134.618 37.6628L39.4177 43.2628C35.9177 43.5628 34.7177 45.3628 34.7177 49.1628L34.7177 49.1628ZM124.618 53.8628C125.218 56.4628 124.618 59.1628 122.018 59.4628L117.618 60.3628L117.618 124.763C113.818 126.763 110.318 127.963 107.318 127.963C102.618 127.963 101.418 126.463 97.9177 122.063L69.2177 76.9628L69.2177 120.563L78.3177 122.563C78.3177 122.563 78.3177 127.863 71.0177 127.863L50.8177 129.063C50.2177 127.863 50.8177 124.963 52.8177 124.363L58.1177 122.863L58.1177 65.2628L50.8177 64.6628C50.2177 62.0628 51.7177 58.2628 55.8177 57.9628L77.5177 56.4628L107.418 102.063L107.418 61.7628L99.8177 60.8628C99.2177 57.6628 101.618 55.2628 104.518 54.9628L124.618 53.8628ZM13.9177 9.96278L97.4177 3.86278C107.618 2.96278 110.318 3.56278 116.718 8.26278L143.318 26.9628C147.718 30.1628 149.218 31.0628 149.218 34.5628L149.218 137.263C149.218 143.663 146.918 147.463 138.718 148.063L41.8177 153.963C35.6177 154.263 32.7177 153.363 29.5177 149.263L9.81768 123.763C6.31768 119.063 4.81768 115.563 4.81768 111.463L4.81768 20.1628C4.81768 14.8628 7.21768 10.5628 13.9177 9.96278Z" fill="#000000" fill-rule="nonzero" opacity="1" stroke="none"/>
</g>
</svg>
