<?xml version="1.0" encoding="UTF-8" standalone="no"?>
<svg height="150px" stroke-miterlimit="10" version="1.1" viewBox="0 0 457.781 140.892" width="150px" xml:space="preserve" xmlns="http://www.w3.org/2000/svg" xmlns:xlink="http://www.w3.org/1999/xlink">
<defs/>
<g id="Sans-titre">
<g opacity="1">
<clipPath id="ClipPath">
<path d="M4 3.44617L154 3.44617L154 137.446L4 137.446L4 3.44617Z"/>
</clipPath>
<g clip-path="url(#ClipPath)">
<path d="M127.227 47.2665C125.676 46.7313 124.071 46.2274 122.411 45.7469C122.684 44.6376 122.934 43.5399 123.157 42.4618C126.801 24.7665 124.422 10.5087 116.278 5.81335C108.465 1.31335 95.696 6.00476 82.797 17.2235C81.555 18.3055 80.309 19.4462 79.071 20.6415C78.243 19.8524 77.418 19.0868 76.59 18.3524C63.075 6.35632 49.524 1.30164 41.387 6.00867C33.586 10.5243 31.278 23.9266 34.559 40.7001C34.879 42.3173 35.247 43.9735 35.668 45.6571C33.75 46.2001 31.899 46.7782 30.129 47.3954C14.278 52.9188 4.161 61.5751 4.161 70.5555C4.161 79.8251 15.024 89.1298 31.532 94.7665C32.832 95.2118 34.184 95.6337 35.579 96.0321C35.125 97.8485 34.731 99.6298 34.403 101.372C31.27 117.852 33.715 130.938 41.497 135.423C49.532 140.059 63.02 135.294 76.153 123.821C77.196 122.915 78.235 121.95 79.278 120.946C80.633 122.243 81.985 123.477 83.321 124.634C96.043 135.575 108.61 139.993 116.379 135.497C124.411 130.852 127.024 116.79 123.633 99.6884C123.375 98.3798 123.071 97.0477 122.739 95.6923C123.684 95.411 124.614 95.118 125.52 94.8212C142.68 89.1337 153.844 79.954 153.844 70.5555C153.844 61.5438 143.395 52.829 127.227 47.2665ZM123.508 88.7548C122.692 89.0243 121.848 89.286 120.993 89.536C119.098 83.5477 116.543 77.1688 113.411 70.5829C116.399 64.1532 118.856 57.8602 120.696 51.9071C122.227 52.3485 123.715 52.8173 125.145 53.3094C138.997 58.0751 147.446 65.1259 147.446 70.5555C147.446 76.3329 138.325 83.8446 123.508 88.7548ZM117.356 100.927C118.86 108.493 119.071 115.329 118.079 120.677C117.188 125.481 115.391 128.684 113.176 129.966C108.457 132.692 98.372 129.145 87.497 119.79C86.247 118.712 84.989 117.567 83.731 116.356C87.946 111.747 92.165 106.388 96.278 100.431C103.512 99.7938 110.348 98.743 116.551 97.3094C116.856 98.5438 117.125 99.7469 117.356 100.927ZM55.192 129.489C50.582 131.122 46.911 131.169 44.692 129.888C39.973 127.165 38.008 116.657 40.688 102.563C40.993 100.95 41.36 99.2899 41.778 97.5985C47.911 98.954 54.696 99.9305 61.95 100.513C66.094 106.341 70.43 111.692 74.801 116.38C73.848 117.306 72.895 118.181 71.946 119.005C66.141 124.083 60.321 127.684 55.192 129.489ZM33.602 88.7196C26.301 86.2235 20.274 82.9852 16.141 79.4423C12.43 76.2704 10.555 73.1141 10.555 70.5555C10.555 65.1063 18.68 58.1571 32.235 53.4305C33.879 52.8602 35.602 52.3173 37.387 51.8134C39.258 57.9032 41.715 64.2704 44.68 70.7079C41.68 77.2391 39.188 83.7118 37.293 89.8759C36.02 89.5087 34.786 89.1219 33.602 88.7196ZM40.836 39.4696C38.024 25.1024 39.895 14.2626 44.594 11.5399C49.602 8.64148 60.676 12.7743 72.344 23.1337C73.09 23.7938 73.84 24.4891 74.594 25.204C70.243 29.8719 65.946 35.1884 61.84 40.9774C54.801 41.6298 48.063 42.6766 41.868 44.0829C41.477 42.5165 41.133 40.9774 40.836 39.4696ZM105.403 55.4071C103.922 52.8524 102.403 50.3524 100.852 47.9266C105.629 48.5282 110.2 49.329 114.5 50.3094C113.211 54.4423 111.606 58.7626 109.711 63.1962C108.352 60.618 106.915 58.0204 105.403 55.4071ZM79.071 29.7743C82.024 32.9657 84.977 36.5321 87.883 40.4032C84.954 40.2626 81.989 40.1923 79 40.1923C76.043 40.1923 73.102 40.2626 70.192 40.3993C73.094 36.5634 76.079 33.0048 79.071 29.7743ZM52.575 55.454C51.094 58.0165 49.684 60.5985 48.348 63.1884C46.489 58.7743 44.895 54.4344 43.594 50.243C47.864 49.286 52.418 48.5048 57.165 47.9149C55.59 50.3641 54.059 52.8798 52.575 55.4501L52.575 55.454ZM57.297 93.6454C52.395 93.1024 47.774 92.3602 43.504 91.4305C44.825 87.1649 46.454 82.7352 48.356 78.2235C49.696 80.8094 51.11 83.3954 52.598 85.9657C54.118 88.5829 55.688 91.1454 57.297 93.6454ZM79.247 111.782C76.219 108.516 73.196 104.895 70.243 101.009C73.106 101.122 76.032 101.181 79 101.181C82.055 101.181 85.071 101.11 88.036 100.981C85.125 104.938 82.176 108.559 79.247 111.782ZM109.77 77.993C111.77 82.5516 113.457 86.9579 114.797 91.1571C110.457 92.1454 105.77 92.9384 100.836 93.536C102.391 91.0751 103.922 88.5321 105.43 85.9188C106.957 83.2782 108.399 80.6298 109.77 77.993ZM99.887 82.7274C97.547 86.786 95.145 90.6532 92.707 94.3055C88.27 94.6219 83.68 94.786 79 94.786C74.34 94.786 69.809 94.6454 65.45 94.3602C62.911 90.661 60.457 86.7782 58.133 82.7626C55.813 78.7587 53.68 74.7196 51.747 70.7079C53.68 66.6844 55.809 62.6415 58.114 58.6454C60.426 54.6376 62.86 50.7743 65.372 47.0946C69.821 46.7587 74.387 46.5829 79 46.5829C83.637 46.5829 88.204 46.7626 92.653 47.0985C95.133 50.7509 97.547 54.6024 99.872 58.6102C102.215 62.6649 104.372 66.6805 106.321 70.618C104.379 74.6219 102.227 78.6766 99.887 82.7274ZM113.079 11.3485C118.094 14.2391 120.043 25.8915 116.891 41.1727C116.692 42.1454 116.465 43.1376 116.219 44.1454C110.008 42.7118 103.266 41.6493 96.211 40.9852C92.094 35.1298 87.832 29.8094 83.551 25.2001C84.704 24.0946 85.856 23.0399 86.993 22.0438C98.047 12.4305 108.375 8.63757 113.079 11.3485ZM79 57.1923C86.379 57.1923 92.368 63.1688 92.368 70.5516C92.368 77.9266 86.379 83.9149 79 83.9149C71.622 83.9149 65.637 77.9266 65.637 70.5516C65.637 63.1688 71.622 57.1923 79 57.1923Z" fill="#00d8ff" fill-rule="nonzero" opacity="1" stroke="none"/>
</g>
</g>
<g opacity="1">
<path d="M235.111 106.09L216.019 76.5493C214.099 76.5168 211.413 76.4028 207.963 76.2075L207.963 106.09L194.779 106.09L194.779 34.5571C195.495 34.5571 198.246 34.4351 203.031 34.1909C207.816 33.9468 211.674 33.8247 214.603 33.8247C232.767 33.8247 241.849 40.856 241.849 54.9185C241.849 59.1502 240.596 63.0077 238.09 66.4907C235.583 69.9738 232.426 72.4315 228.617 73.8638L249.76 106.09L235.111 106.09ZM207.963 45.5923L207.963 65.4653C210.306 65.6606 212.097 65.7583 213.334 65.7583C218.64 65.7583 222.522 65.0096 224.979 63.5122C227.437 62.0148 228.666 59.1014 228.666 54.772C228.666 51.2563 227.347 48.7987 224.711 47.3989C222.074 45.9992 217.924 45.2993 212.26 45.2993C210.892 45.2993 209.46 45.397 207.963 45.5923Z" fill="#00d8ff" fill-rule="nonzero" opacity="1" stroke="none"/>
<path d="M301.81 83.6782L264.457 83.6782C264.685 87.8449 266.117 91.0838 268.754 93.395C271.39 95.7062 274.939 96.8618 279.398 96.8618C284.965 96.8618 289.196 95.4133 292.094 92.5161L296.83 101.842C292.533 105.325 286.12 107.067 277.592 107.067C269.616 107.067 263.309 104.731 258.671 100.06C254.032 95.3888 251.713 88.8703 251.713 80.5044C251.713 72.2687 254.26 65.5955 259.354 60.4849C264.449 55.3742 270.56 52.8188 277.689 52.8188C285.274 52.8188 291.361 55.0812 295.951 59.606C300.541 64.1307 302.836 69.8924 302.836 76.8911C302.836 78.3885 302.494 80.6509 301.81 83.6782ZM264.896 74.4985L290.58 74.4985C289.734 66.8488 285.502 63.0239 277.885 63.0239C270.918 63.0239 266.589 66.8488 264.896 74.4985Z" fill="#00d8ff" fill-rule="nonzero" opacity="1" stroke="none"/>
<path d="M341.703 100.866C340.596 102.688 338.667 104.178 335.917 105.333C333.166 106.489 330.293 107.067 327.299 107.067C321.667 107.067 317.24 105.659 314.017 102.843C310.795 100.028 309.183 96.0317 309.183 90.856C309.183 84.8013 311.454 80.0649 315.995 76.647C320.536 73.229 326.989 71.52 335.355 71.52C336.788 71.52 338.48 71.7642 340.433 72.2524C340.433 66.1001 336.543 63.0239 328.764 63.0239C324.174 63.0239 320.333 63.7889 317.24 65.3188L314.603 55.8462C318.803 53.828 323.799 52.8188 329.594 52.8188C337.569 52.8188 343.412 54.6336 347.123 58.2632C350.834 61.8927 352.689 68.7694 352.689 78.8931L352.689 90.0747C352.689 97.0409 354.089 101.419 356.889 103.209C355.879 104.967 354.756 106.049 353.519 106.456C352.282 106.863 350.866 107.067 349.271 107.067C347.514 107.067 345.935 106.416 344.535 105.114C343.135 103.811 342.191 102.395 341.703 100.866ZM340.531 81.481C338.448 81.0578 336.885 80.8462 335.844 80.8462C326.208 80.8462 321.39 84.0037 321.39 90.3188C321.39 95.0063 324.109 97.3501 329.545 97.3501C336.869 97.3501 340.531 93.688 340.531 86.3638L340.531 81.481Z" fill="#00d8ff" fill-rule="nonzero" opacity="1" stroke="none"/>
<path d="M406.889 57.9458L401.664 67.0767C398.799 64.3748 394.958 63.0239 390.14 63.0239C385.518 63.0239 381.864 64.562 379.179 67.6382C376.493 70.7144 375.15 74.9705 375.15 80.4067C375.15 91.3768 380.375 96.8618 390.824 96.8618C395.349 96.8618 399.336 95.3644 402.787 92.3696L407.279 101.989C403.731 104.202 400.63 105.602 397.977 106.188C395.324 106.774 392.191 107.067 388.578 107.067C380.505 107.067 374.133 104.715 369.462 100.011C364.791 95.3075 362.455 88.7726 362.455 80.4067C362.455 72.1711 365.01 65.5142 370.121 60.436C375.232 55.3579 382.198 52.8188 391.019 52.8188C397.107 52.8188 402.396 54.5278 406.889 57.9458Z" fill="#00d8ff" fill-rule="nonzero" opacity="1" stroke="none"/>
<path d="M418.9 63.6099L412.846 63.6099L412.846 53.7954L418.9 53.7954L418.9 43.1509L431.107 38.6587L431.107 53.7954L445.463 53.7954L445.463 63.6099L431.107 63.6099L431.107 86.5103C431.107 90.2537 431.693 92.8986 432.865 94.4448C434.037 95.9911 436.088 96.7642 439.017 96.7642C441.947 96.7642 444.681 95.9666 447.221 94.3716L447.221 105.602C444.389 106.578 440.352 107.067 435.111 107.067C429.903 107.067 425.899 105.594 423.099 102.648C420.3 99.702 418.9 95.5109 418.9 90.0747L418.9 63.6099Z" fill="#00d8ff" fill-rule="nonzero" opacity="1" stroke="none"/>
</g>
</g>
</svg>
