<?xml version="1.0" encoding="UTF-8" standalone="no"?>
<svg height="100%" stroke-miterlimit="10"
 version="1.1" viewBox="0 0 451.657 122.613" width="150px" xml:space="preserve" xmlns="http://www.w3.org/2000/svg" xmlns:xlink="http://www.w3.org/1999/xlink">
<defs/>
<g id="Sans-titre">
<g opacity="1">
<path d="M149.85 34.8019L177.35 34.8019C181.31 34.8019 184.811 35.3702 187.855 36.5069C190.898 37.6436 193.428 39.2019 195.445 41.1819C197.461 43.1619 198.983 45.4719 200.01 48.1119C201.036 50.7519 201.55 53.5752 201.55 56.5819C201.55 59.4419 201.128 61.9536 200.285 64.1169C199.441 66.2802 198.36 68.1686 197.04 69.7819C195.72 71.3952 194.29 72.7152 192.75 73.7419C191.21 74.7686 189.78 75.5752 188.46 76.1619L205.07 104.101L185.82 104.101L173.5 79.1319L166.57 79.1319L166.57 104.101L149.85 104.101L149.85 34.8019ZM166.57 66.4819L171.63 66.4819C175.443 66.4819 178.523 65.7119 180.87 64.1719C183.216 62.6319 184.39 60.1386 184.39 56.6919C184.39 53.8319 183.436 51.5586 181.53 49.8719C179.623 48.1852 176.873 47.3419 173.28 47.3419L166.57 47.3419L166.57 66.4819Z" fill="#000000" fill-rule="nonzero" opacity="1" stroke="none"/>
<path d="M260.73 82.4319L226.63 82.4319L226.63 82.8719C226.63 86.5386 228.06 89.2152 230.92 90.9014C233.78 92.5884 237.373 93.4314 241.7 93.4314C244.706 93.4314 247.346 93.1384 249.62 92.5514C251.893 91.9654 253.8 91.2684 255.34 90.4614L258.31 101.681C256.33 102.635 253.818 103.478 250.775 104.211C247.731 104.945 244.01 105.311 239.61 105.311C235.65 105.311 231.891 104.78 228.335 103.716C224.778 102.653 221.661 101.021 218.985 98.8214C216.308 96.6214 214.181 93.8354 212.605 90.4614C211.028 87.0886 210.24 83.0552 210.24 78.3619C210.24 74.1819 210.881 70.3502 212.165 66.8669C213.448 63.3836 215.263 60.3952 217.61 57.9019C219.956 55.4086 222.761 53.4836 226.025 52.1269C229.288 50.7702 232.9 50.0919 236.86 50.0919C244.12 50.0919 249.913 52.2919 254.24 56.6919C258.566 61.0919 260.73 67.3619 260.73 75.5019L260.73 82.4319ZM244.12 71.3219C244.12 70.0752 243.973 68.8652 243.68 67.6919C243.386 66.5186 242.928 65.4736 242.305 64.5569C241.681 63.6402 240.875 62.9069 239.885 62.3569C238.895 61.8069 237.703 61.5319 236.31 61.5319C233.743 61.5319 231.616 62.4302 229.93 64.2269C228.243 66.0236 227.253 68.4619 226.96 71.5419L244.12 71.3219Z" fill="#000000" fill-rule="nonzero" opacity="1" stroke="none"/>
<path d="M304.95 25.4519L321.23 25.4519L321.23 104.101L310.01 104.101L308.36 98.3814L307.81 98.3814C306.783 99.9954 305.005 101.553 302.475 103.056C299.945 104.56 296.626 105.311 292.52 105.311C289.073 105.311 285.883 104.67 282.95 103.386C280.016 102.103 277.486 100.27 275.36 97.8864C273.233 95.5034 271.565 92.6064 270.355 89.1969C269.145 85.7869 268.54 81.9552 268.54 77.7019C268.54 73.5219 269.09 69.7269 270.19 66.3169C271.29 62.9069 272.885 60.0102 274.975 57.6269C277.065 55.2436 279.65 53.3919 282.73 52.0719C285.81 50.7519 289.293 50.0919 293.18 50.0919C295.6 50.0919 297.891 50.4402 300.055 51.1369C302.218 51.8336 303.85 52.6952 304.95 53.7219L304.95 25.4519ZM304.95 65.6019C304.29 64.7219 303.263 63.8786 301.87 63.0719C300.476 62.2652 298.936 61.8619 297.25 61.8619C295.563 61.8619 293.986 62.1369 292.52 62.6869C291.053 63.2369 289.751 64.1352 288.615 65.3819C287.478 66.6286 286.58 68.2236 285.92 70.1669C285.26 72.1102 284.93 74.5119 284.93 77.3719C284.93 82.8719 286.011 86.9236 288.175 89.5269C290.338 92.1304 293.143 93.4314 296.59 93.4314C298.716 93.4314 300.495 92.8814 301.925 91.7814C303.355 90.6814 304.363 89.5086 304.95 88.2619L304.95 65.6019Z" fill="#000000" fill-rule="nonzero" opacity="1" stroke="none"/>
<path d="M367.76 51.3019L384.04 51.3019L384.04 104.101L372.05 104.101L370.4 98.3814L369.96 98.3814C369.226 99.1154 368.346 99.8854 367.32 100.691C366.293 101.498 365.065 102.25 363.635 102.946C362.205 103.643 360.573 104.211 358.74 104.651C356.906 105.091 354.816 105.311 352.47 105.311C346.75 105.311 342.276 103.735 339.05 100.581C335.823 97.4284 334.21 92.7714 334.21 86.6119L334.21 51.3019L350.49 51.3019L350.49 85.2919C350.49 88.0052 351.168 90.0034 352.525 91.2864C353.881 92.5704 355.623 93.2114 357.75 93.2114C360.316 93.2114 362.425 92.6804 364.075 91.6164C365.725 90.5534 366.953 89.4352 367.76 88.2619L367.76 51.3019Z" fill="#000000" fill-rule="nonzero" opacity="1" stroke="none"/>
<path d="M429.69 77.0419L448.39 104.101L429.69 104.101L425.29 97.5014L419.46 87.0519L414.07 97.3914L409.89 104.101L391.41 104.101L409.89 77.0419L392.51 51.3019L410.66 51.3019L415.06 58.1219L420.23 68.1319L425.07 58.1219L429.14 51.3019L446.96 51.3019L429.69 77.0419Z" fill="#000000" fill-rule="nonzero" opacity="1" stroke="none"/>
</g>
<g opacity="1">
<clipPath id="ClipPath">
<path d="M2.9069 1.65283L127.907 1.65283L127.907 118.84L2.9069 118.84L2.9069 1.65283Z"/>
</clipPath>
<g clip-path="url(#ClipPath)">
<path d="M89.2954 83.5044C93.8628 83.0398 97.3248 79.1064 97.1658 74.3966C97.0058 69.6799 93.0728 65.9127 88.3527 65.9127L88.034 65.9127C83.158 66.0686 79.3806 70.1512 79.5332 75.0239C79.6925 77.3805 80.6352 79.4218 82.0559 80.8358C76.7018 91.3614 68.5163 99.0654 56.2381 105.5C47.8932 109.898 39.2364 111.472 30.5796 110.373C23.4961 109.43 17.986 106.287 14.5205 101.102C9.48509 93.4054 9.01379 85.0777 13.2625 76.7498C16.2533 70.7785 20.9767 66.3806 23.9674 64.1833C23.3367 62.142 22.3941 58.6834 21.9194 56.1708C-0.90441 72.6638 1.45562 94.9754 8.38309 105.5C13.5779 113.357 24.1234 118.226 35.7743 118.226C38.921 118.226 42.0711 117.914 45.2178 117.128C65.3662 113.204 80.6352 101.262 89.2954 83.5044ZM117.002 64.0274C105.039 50.0435 87.4067 42.3463 67.2549 42.3463L64.7389 42.3463C63.3215 39.5183 60.3308 37.6297 57.0247 37.6297L56.7128 37.6297C51.83 37.789 48.0526 41.8716 48.2086 46.7442C48.3679 51.4541 52.3013 55.2281 57.0247 55.2281L57.3401 55.2281C60.8055 55.0721 63.7963 52.8749 65.0509 49.8875L67.889 49.8875C79.8485 49.8875 91.1841 53.3394 101.418 60.0974C109.285 65.282 114.954 72.0365 118.104 80.2085C120.783 86.8036 120.624 93.2464 117.789 98.7464C113.377 107.074 105.982 111.631 96.2198 111.631C89.9227 111.631 83.9412 109.746 80.7945 108.332C79.0652 109.898 75.9151 112.418 73.7111 113.984C80.4826 117.128 87.4067 118.853 94.0158 118.853C109.132 118.853 120.308 110.532 124.557 102.201C129.121 93.0934 128.809 77.3805 117.002 64.0274ZM37.0289 86.1763C37.1883 90.8894 41.1217 94.6604 45.8451 94.6604L46.1605 94.6604C51.0399 94.5074 54.8207 90.4214 54.6613 85.549C54.5053 80.8358 50.5686 77.0685 45.8451 77.0685L45.5298 77.0685C45.2144 77.0685 44.7431 77.0685 44.4278 77.2211C37.975 66.54 35.2996 54.9128 36.2423 42.3463C36.873 32.9164 40.0197 24.7478 45.5298 17.9933C50.0973 12.178 58.9134 9.35003 64.8949 9.19403C81.5812 8.87873 88.6647 29.6171 89.1394 37.945C91.1807 38.4163 94.6458 39.5183 97.0058 40.3016C95.1138 14.85 79.3772 1.65283 64.2608 1.65283C50.0973 1.65283 37.0289 11.866 31.8342 26.9485C24.5947 47.0562 29.3182 66.3806 38.131 81.6224C37.3443 82.7211 36.873 84.4504 37.0289 86.1797L37.0289 86.1763Z" fill="#764abc" fill-rule="nonzero" opacity="1" stroke="none"/>
</g>
</g>
</g>
</svg>
