<?xml version="1.0" encoding="UTF-8" standalone="no"?>
<svg height="150px" stroke-miterlimit="10" version="1.1" viewBox="0 0 383.452 184.126" width="150px" xml:space="preserve" xmlns="http://www.w3.org/2000/svg" xmlns:xlink="http://www.w3.org/1999/xlink">
<defs/>
<g id="Sans-titre">
<g opacity="1">
<g opacity="1">
<clipPath id="ClipPath">
<path d="M1.70955 56.3955L76.8986 56.3955L76.8986 126.118L1.70955 126.118L1.70955 56.3955Z"/>
</clipPath>
<g clip-path="url(#ClipPath)">
<path d="M53.6733 105.095C56.4207 104.818 58.5031 102.478 58.4073 99.6757C58.3114 96.8695 55.9454 94.6281 53.1063 94.6281L52.9145 94.6281C49.9815 94.7209 47.7094 97.1499 47.8012 100.049C47.897 101.451 48.4641 102.666 49.3187 103.507C46.0981 109.769 41.1744 114.353 33.7889 118.182C28.7694 120.798 23.5622 121.734 18.355 121.081C14.0942 120.52 10.7798 118.65 8.69529 115.565C5.66643 110.986 5.38292 106.031 7.93858 101.076C9.73754 97.5231 12.5787 94.9065 14.3777 93.5992C13.9983 92.3847 13.4313 90.3269 13.1458 88.8319C-0.583002 98.6448 0.836582 111.92 5.00355 118.182C8.12827 122.856 14.4715 125.753 21.4797 125.753C23.3725 125.753 25.2673 125.568 27.1601 125.1C39.2796 122.765 48.4641 115.66 53.6733 105.095ZM70.3391 93.5064C63.1433 85.1864 52.5372 80.6068 40.4157 80.6068L38.9023 80.6068C38.0497 78.9243 36.2507 77.8006 34.2621 77.8006L34.0744 77.8006C31.1374 77.8954 28.8652 80.3244 28.959 83.2234C29.0549 86.0257 31.4209 88.2711 34.2621 88.2711L34.4518 88.2711C36.5363 88.1783 38.3352 86.871 39.0899 85.0936L40.7971 85.0936C47.9909 85.0936 54.8094 87.1474 60.965 91.1681C65.6969 94.2528 69.1072 98.2716 71.002 103.134C72.6133 107.058 72.5174 110.891 70.8123 114.163C68.1587 119.118 63.7103 121.829 57.8382 121.829C54.0506 121.829 50.4527 120.708 48.5599 119.866C47.5197 120.798 45.6249 122.297 44.2991 123.229C48.3723 125.1 52.5372 126.126 56.5124 126.126C65.6051 126.126 72.3278 121.176 74.8834 116.219C77.6288 110.8 77.4411 101.451 70.3391 93.5064ZM22.2344 106.684C22.3302 109.489 24.6962 111.732 27.5374 111.732L27.7271 111.732C30.6621 111.641 32.9363 109.21 32.8405 106.311C32.7466 103.507 30.3786 101.265 27.5374 101.265L27.3477 101.265C27.158 101.265 26.8745 101.265 26.6849 101.356C22.8034 95.0013 21.1942 88.0835 21.7612 80.6068C22.1405 74.9963 24.0333 70.1363 27.3477 66.1175C30.0951 62.6576 35.3982 60.9751 38.9961 60.8823C49.0331 60.6946 53.2939 73.0333 53.5795 77.9882C54.8073 78.2686 56.8918 78.9243 58.3114 79.3903C57.1733 64.2474 47.7073 56.3955 38.6147 56.3955C30.0951 56.3955 22.2344 62.472 19.1097 71.4456C14.755 83.4091 17.5962 94.9065 22.8973 103.975C22.4241 104.629 22.1405 105.657 22.2344 106.686L22.2344 106.684Z" fill="#764abc" fill-rule="nonzero" opacity="1" stroke="none"/>
</g>
</g>
<g fill="#000000" opacity="1" stroke="none">
<path d="M94.5189 54.4569L119.489 54.4569C123.302 54.4569 126.639 55.0069 129.499 56.1069C132.359 57.2069 134.761 58.7102 136.704 60.6169C138.647 62.5236 140.114 64.7602 141.104 67.3269C142.094 69.8936 142.589 72.6802 142.589 75.6869C142.589 78.4736 142.167 80.9302 141.324 83.0569C140.481 85.1836 139.399 87.0536 138.079 88.6669C136.759 90.2802 135.292 91.6186 133.679 92.6819C132.066 93.7452 130.489 94.6069 128.949 95.2669L146.439 123.757L131.149 123.757L116.739 97.6869L107.609 97.6869L107.609 123.757L94.5189 123.757L94.5189 54.4569ZM107.609 87.2369L114.319 87.2369C118.499 87.2369 121.946 86.3752 124.659 84.6519C127.372 82.9286 128.729 80.0502 128.729 76.0169C128.729 72.3502 127.647 69.5636 125.484 67.6569C123.321 65.7502 120.149 64.7969 115.969 64.7969L107.609 64.7969L107.609 87.2369Z"/>
<path d="M200.779 100.547L165.249 100.547L165.249 100.987C165.249 105.754 166.734 109.31 169.704 111.657C172.674 114.004 176.579 115.177 181.419 115.177C184.279 115.177 186.827 114.92 189.064 114.407C191.301 113.894 193.446 113.197 195.499 112.317L198.029 121.447C195.902 122.4 193.372 123.207 190.439 123.867C187.506 124.527 184.096 124.857 180.209 124.857C176.322 124.857 172.674 124.344 169.264 123.317C165.854 122.29 162.866 120.677 160.299 118.477C157.732 116.277 155.697 113.49 154.194 110.117C152.691 106.744 151.939 102.71 151.939 98.0169C151.939 93.9102 152.562 90.1702 153.809 86.7969C155.056 83.4236 156.816 80.5269 159.089 78.1069C161.362 75.6869 164.112 73.8169 167.339 72.4969C170.566 71.1769 174.122 70.5169 178.009 70.5169C184.976 70.5169 190.512 72.6436 194.619 76.8969C198.726 81.1502 200.779 87.0536 200.779 94.6069L200.779 100.547ZM187.469 91.5269C187.469 89.9869 187.286 88.5019 186.919 87.0719C186.552 85.6419 185.966 84.3769 185.159 83.2769C184.352 82.1769 183.307 81.3152 182.024 80.6919C180.741 80.0686 179.219 79.7569 177.459 79.7569C174.159 79.7569 171.446 80.8569 169.319 83.0569C167.192 85.2569 165.909 88.1536 165.469 91.7469L187.469 91.5269Z"/>
<path d="M246.099 45.4369L259.079 45.4369L259.079 123.757L249.399 123.757L247.969 118.037L247.529 118.037C245.842 120.017 243.789 121.649 241.369 122.932C238.949 124.215 235.832 124.857 232.019 124.857C228.939 124.857 226.006 124.27 223.219 123.097C220.432 121.924 217.994 120.182 215.904 117.872C213.814 115.562 212.164 112.72 210.954 109.347C209.744 105.974 209.139 102.087 209.139 97.6869C209.139 93.5802 209.671 89.8586 210.734 86.5219C211.797 83.1852 213.356 80.3252 215.409 77.9419C217.462 75.5586 219.974 73.7252 222.944 72.4419C225.914 71.1586 229.269 70.5169 233.009 70.5169C235.576 70.5169 238.014 70.9019 240.324 71.6719C242.634 72.4419 244.559 73.5236 246.099 74.9169L246.099 45.4369ZM246.099 84.9269C244.852 83.4602 243.386 82.2869 241.699 81.4069C240.012 80.5269 238.142 80.0869 236.089 80.0869C234.256 80.0869 232.514 80.3986 230.864 81.0219C229.214 81.6452 227.747 82.6536 226.464 84.0469C225.181 85.4402 224.154 87.2369 223.384 89.4369C222.614 91.6369 222.229 94.2769 222.229 97.3569C222.229 100.437 222.577 103.114 223.274 105.387C223.971 107.66 224.906 109.512 226.079 110.942C227.252 112.372 228.627 113.435 230.204 114.132C231.781 114.829 233.449 115.177 235.209 115.177C237.629 115.177 239.756 114.609 241.589 113.472C243.422 112.335 244.926 110.85 246.099 109.017L246.099 84.9269Z"/>
<path d="M307.149 71.5069L320.129 71.5069L320.129 123.757L310.339 123.757L308.799 117.707L308.359 117.707C306.672 119.467 304.436 121.099 301.649 122.602C298.862 124.105 295.379 124.857 291.199 124.857C285.699 124.857 281.299 123.317 277.999 120.237C274.699 117.157 273.049 112.537 273.049 106.377L273.049 71.5069L286.029 71.5069L286.029 105.057C286.029 108.65 286.854 111.199 288.504 112.702C290.154 114.205 292.262 114.957 294.829 114.957C297.542 114.957 299.907 114.389 301.924 113.252C303.941 112.115 305.682 110.704 307.149 109.017L307.149 71.5069Z"/>
<path d="M361.709 97.1369L380.189 123.757L365.339 123.757L358.629 113.967L353.679 105.387L349.169 113.857L342.789 123.757L328.159 123.757L346.309 97.1369L329.149 71.5069L343.669 71.5069L349.939 81.2969L354.449 89.5469L358.849 81.2969L364.679 71.5069L378.869 71.5069L361.709 97.1369Z"/>
</g>
</g>
</g>
</svg>
