<?xml version="1.0" encoding="UTF-8" standalone="no"?>
<svg height="150px" stroke-miterlimit="10" version="1.1" viewBox="0 0 845.465 140.892" width="150px" xml:space="preserve" xmlns="http://www.w3.org/2000/svg" xmlns:xlink="http://www.w3.org/1999/xlink">
<defs/>
<g id="Sans-titre">
<path d="M290.388 66.1062L275.968 66.1062L275.968 93.8962C275.968 101.306 280.858 101.186 290.388 100.726L290.388 111.956C271.088 114.276 263.408 108.946 263.408 93.8962L263.408 66.1062L252.708 66.1062L252.708 54.0562L263.408 54.0562L263.408 38.5062L275.968 34.8062L275.968 54.0562L290.388 54.0562L290.388 66.1062ZM345.368 54.0562L357.928 54.0562L357.928 111.956L345.368 111.956L345.368 103.616C340.948 109.756 334.078 113.466 325.008 113.466C309.198 113.466 296.058 100.146 296.058 83.0062C296.058 65.7562 309.198 52.5562 325.008 52.5562C334.078 52.5562 340.948 56.2562 345.368 62.2762L345.368 54.0562ZM326.988 101.536C337.458 101.536 345.368 93.7762 345.368 83.0062C345.368 72.2362 337.458 64.4762 326.988 64.4762C316.518 64.4762 308.618 72.2362 308.618 83.0062C308.618 93.7762 316.518 101.536 326.988 101.536ZM378.858 45.3762C374.438 45.3762 370.828 41.6662 370.828 37.3862C370.838 36.3362 371.048 35.2962 371.448 34.3262C372.265 32.3674 373.826 30.8133 375.788 30.0062C376.758 29.6062 377.808 29.3962 378.858 29.3962C379.908 29.3962 380.948 29.6062 381.928 30.0062C382.898 30.4062 383.778 30.9962 384.528 31.7362C385.268 32.4862 385.858 33.3662 386.268 34.3262C386.668 35.2962 386.878 36.3362 386.878 37.3862C386.878 41.6662 383.278 45.3762 378.858 45.3762ZM372.578 111.956L372.578 54.0562L385.138 54.0562L385.138 111.956L372.578 111.956ZM399.678 111.956L399.678 27.4262L412.238 27.4262L412.238 111.956L399.678 111.956ZM493.758 54.0562L507.018 54.0562L488.758 111.956L476.428 111.956L464.338 72.9362L452.128 111.956L439.798 111.956L421.538 54.0562L434.798 54.0562L446.078 94.0062L458.288 54.0562L470.268 54.0562L482.358 94.0062L493.758 54.0562ZM522.598 45.3762C518.178 45.3762 514.578 41.6662 514.578 37.3862C514.578 36.3362 514.788 35.2962 515.188 34.3262C515.598 33.3662 516.188 32.4862 516.928 31.7362C517.678 30.9962 518.558 30.4062 519.528 30.0062C520.508 29.6062 521.548 29.3962 522.598 29.3962C524.723 29.3967 526.762 30.2379 528.268 31.7362C529.018 32.4862 529.608 33.3662 530.008 34.3262C530.418 35.2962 530.628 36.3362 530.628 37.3862C530.628 41.6662 527.018 45.3762 522.598 45.3762ZM516.318 111.956L516.318 54.0562L528.878 54.0562L528.878 111.956L516.318 111.956ZM596.338 76.4062L596.338 111.956L583.778 111.956L583.778 77.6862C583.778 68.8762 578.658 64.2462 570.748 64.2462C562.488 64.2462 555.978 69.1162 555.978 80.9262L555.978 111.956L543.418 111.956L543.418 54.0562L555.978 54.0562L555.978 61.4662C559.818 55.4462 566.098 52.5562 574.008 52.5562C587.028 52.5562 596.338 61.3562 596.338 76.4062ZM655.878 30.8962L668.438 30.8962L668.438 111.956L655.878 111.956L655.878 103.616C651.458 109.756 644.598 113.466 635.528 113.466C619.708 113.466 606.568 100.146 606.568 83.0062C606.568 65.7562 619.708 52.5562 635.528 52.5562C644.598 52.5562 651.458 56.2562 655.878 62.2762L655.878 30.8962ZM637.508 101.536C647.968 101.536 655.878 93.7762 655.878 83.0062C655.878 72.2362 647.968 64.4762 637.508 64.4762C627.038 64.4762 619.128 72.2362 619.128 83.0062C619.128 93.7762 627.038 101.536 637.508 101.536ZM679.838 83.0062C679.838 65.7562 692.978 52.5562 710.538 52.5562C721.938 52.5562 731.818 58.4562 736.468 67.4962L725.658 73.7462C723.098 68.3062 717.398 64.8262 710.418 64.8262C700.188 64.8262 692.398 72.5862 692.398 83.0062C692.398 93.4262 700.188 101.186 710.418 101.186C717.398 101.186 723.098 97.5962 725.888 92.2762L736.708 98.4062C731.818 107.556 721.938 113.466 710.538 113.466C692.978 113.466 679.838 100.146 679.838 83.0062ZM788.688 95.6262C788.688 107.206 778.568 113.466 766.008 113.466C754.378 113.466 746.008 108.246 742.288 99.9162L753.098 93.6562C754.968 98.8762 759.618 101.996 766.008 101.996C771.598 101.996 775.898 100.146 775.898 95.5162C775.898 85.2062 744.618 90.9962 744.618 70.2662C744.618 59.3862 754.038 52.5562 765.898 52.5562C775.428 52.5562 783.338 56.9562 787.408 64.5962L776.828 70.5062C774.738 65.9862 770.668 63.9062 765.898 63.9062C761.358 63.9062 757.408 65.8662 757.408 70.0362C757.408 80.5762 788.688 74.2062 788.688 95.6262ZM842.308 95.6262C842.308 107.206 832.188 113.466 819.628 113.466C807.998 113.466 799.618 108.246 795.898 99.9162L806.718 93.6562C808.578 98.8762 813.228 101.996 819.628 101.996C825.208 101.996 829.508 100.146 829.508 95.5162C829.508 85.2062 798.228 90.9962 798.228 70.2662C798.228 59.3862 807.648 52.5562 819.508 52.5562C829.048 52.5562 836.958 56.9562 841.028 64.5962L830.438 70.5062C828.348 65.9862 824.278 63.9062 819.508 63.9062C814.978 63.9062 811.018 65.8662 811.018 70.0362C811.018 80.5762 842.308 74.2062 842.308 95.6262Z" fill="#000000" fill-rule="nonzero" opacity="1" stroke="none"/>
<path d="M106.138 8.84025C78.6428 8.84025 61.4441 22.5318 54.5671 49.915C64.8888 36.2234 76.9204 31.0813 90.6744 34.5011C98.5124 36.4606 104.116 42.1269 110.332 48.4048C120.441 58.6142 132.149 70.4462 157.71 70.4462C185.205 70.4462 202.391 56.7546 209.268 29.3714C198.959 43.063 186.927 48.1927 173.173 44.7729C165.335 42.8258 159.719 37.147 153.516 30.8816C143.406 20.6597 131.699 8.84025 106.138 8.84025ZM54.5671 70.4462C27.0715 70.4462 9.88529 84.1378 3.0083 111.521C13.3176 97.8293 25.3492 92.6997 39.1032 96.1195C46.9537 98.0665 52.5576 103.745 58.7607 110.011C68.8702 120.233 80.5773 132.052 106.138 132.052C133.646 132.052 150.833 118.36 157.71 90.9773C147.388 104.669 135.356 109.811 121.615 106.391C113.764 104.432 108.16 98.7654 101.945 92.4875C91.8351 82.2781 80.128 70.4462 54.5671 70.4462Z" fill="#06b6d4" fill-rule="nonzero" opacity="1" stroke="none"/>
</g>
</svg>
