<?xml version="1.0" encoding="UTF-8" standalone="no"?>
<svg height="150px" stroke-miterlimit="10" version="1.1" viewBox="0 0 643.056 135.915" width="150px" xml:space="preserve" xmlns="http://www.w3.org/2000/svg" xmlns:xlink="http://www.w3.org/1999/xlink">
<defs/>
<g id="Sans-titre">
<g opacity="1">
<clipPath id="ClipPath">
<path d="M7.72068 51.4304L127.721 51.4304L127.721 86.2304L7.72068 86.2304L7.72068 51.4304Z"/>
</clipPath>
<g clip-path="url(#ClipPath)">
<path d="M8.62068 78.5648L8.62068 65.193L25.2611 65.193L25.2611 64.4117L8.62068 64.4117L8.62068 52.2118L26.3147 52.2118L26.3147 51.4304L7.84188 51.4304L7.84188 79.346L26.4707 79.346L26.4707 78.5648L8.62068 78.5648ZM41.4731 59.2492L34.5767 68.3586L27.8327 59.2492L26.8211 59.2492L34.1075 68.9461L26.1203 79.346L27.0551 79.346L34.5767 69.5335L42.1367 79.346L43.1111 79.346L35.0831 68.9461L42.4115 59.2492L41.4731 59.2492ZM45.4487 86.2273L45.4487 73.7148L45.5267 73.7148C45.9959 75.5399 46.9175 77.0054 48.2927 78.1148C49.6703 79.2211 51.4235 79.7742 53.5547 79.7742C54.9299 79.7742 56.1515 79.496 57.2171 78.9367C58.2827 78.3742 59.1731 77.6117 59.8859 76.6492C60.6047 75.6868 61.1483 74.5649 61.5239 73.2868C61.9019 72.0085 62.0891 70.668 62.0891 69.2586C62.0891 67.7461 61.8959 66.3523 61.5047 65.0773C61.1147 63.7992 60.5483 62.6898 59.8115 61.7524C59.0711 60.8148 58.1735 60.0835 57.1211 59.5618C56.0675 59.043 54.8795 58.7804 53.5547 58.7804C52.5419 58.7804 51.6023 58.9304 50.7299 59.2304C49.8611 59.5304 49.0859 59.9555 48.4115 60.5023C47.7359 61.0492 47.1515 61.693 46.6583 62.4367C46.1639 63.1805 45.7859 63.993 45.5267 64.8804L45.4487 64.8804L45.4487 59.2492L44.6711 59.2492L44.6711 86.2304L45.4487 86.2304L45.4487 86.2273ZM53.5547 79.0336C51.1139 79.0336 49.1519 78.193 47.6711 76.5118C46.1891 74.8304 45.4487 72.4117 45.4487 69.2586C45.4487 67.9554 45.6299 66.718 45.9959 65.546C46.3583 64.3711 46.8863 63.343 47.5739 62.4554C48.2615 61.571 49.1111 60.8648 50.1239 60.3461C51.1391 59.8242 52.2803 59.5618 53.5547 59.5618C54.8543 59.5618 55.9919 59.8242 56.9639 60.3461C57.9395 60.8648 58.7423 61.5773 59.3795 62.4773C60.0179 63.3742 60.4991 64.4054 60.8231 65.5649C61.1483 66.7242 61.3115 67.9554 61.3115 69.2586C61.3115 70.4335 61.1615 71.5992 60.8639 72.7585C60.5639 73.918 60.1019 74.9617 59.4803 75.8867C58.8551 76.8118 58.0547 77.568 57.0803 78.1554C56.1083 78.7398 54.9299 79.0336 53.5547 79.0336ZM66.3767 79.346L66.3767 67.968C66.3767 66.8742 66.5327 65.8055 66.8423 64.7617C67.1543 63.7211 67.6367 62.8024 68.2859 62.0054C68.9363 61.2118 69.7607 60.5867 70.7615 60.1304C71.7611 59.6742 72.9491 59.4835 74.3267 59.5618L74.3267 58.7804C73.1303 58.7555 72.0863 58.8868 71.1887 59.171C70.2923 59.4586 69.5207 59.8492 68.8703 60.3461C68.2211 60.8399 67.7015 61.421 67.3115 62.0836C66.9203 62.7492 66.6359 63.4585 66.4547 64.2149L66.3767 64.2149L66.3767 59.2492L65.5991 59.2492L65.5991 79.346L66.3767 79.346ZM75.3023 69.4554L92.0579 69.4554C92.1107 68.0742 91.9739 66.7429 91.6487 65.4679C91.3235 64.1898 90.8051 63.0554 90.0923 62.0648C89.3771 61.0742 88.4543 60.2804 87.3239 59.6804C86.1923 59.0804 84.8483 58.7804 83.2895 58.7804C82.1735 58.7804 81.0803 59.0148 80.0171 59.4835C78.9515 59.9555 78.0143 60.6367 77.2115 61.5367C76.4051 62.4367 75.7547 63.5368 75.2615 64.8398C74.7671 66.146 74.5211 67.6304 74.5211 69.2992C74.5211 70.7836 74.6927 72.1711 75.0263 73.4617C75.3647 74.7523 75.8867 75.8742 76.5863 76.8242C77.2859 77.7773 78.1895 78.5117 79.2959 79.0336C80.3987 79.5554 81.7331 79.8023 83.2895 79.7742C85.5767 79.7742 87.4991 79.1304 89.0579 77.8429C90.6143 76.5523 91.5395 74.7336 91.8239 72.3868L91.0451 72.3868C90.7079 74.6023 89.8427 76.2648 88.4543 77.3711C87.0647 78.4805 85.3175 79.0336 83.2115 79.0336C81.7835 79.0336 80.5739 78.7867 79.5863 78.2898C78.5987 77.7961 77.7959 77.118 77.1707 76.2586C76.5491 75.3961 76.0859 74.3867 75.7895 73.2274C75.4895 72.0679 75.3263 70.8085 75.3023 69.4554ZM91.2803 68.6742L75.3023 68.6742C75.3803 67.2648 75.6395 66.0023 76.0799 64.8804C76.5239 63.7585 77.1023 62.8024 77.8139 62.0054C78.5303 61.2118 79.3607 60.6054 80.3075 60.1898C81.2579 59.771 82.2767 59.5618 83.3675 59.5618C84.6671 59.5618 85.8107 59.8055 86.7983 60.2867C87.7859 60.768 88.6079 61.4273 89.2739 62.2618C89.9363 63.0961 90.4367 64.0649 90.7703 65.1742C91.1111 66.2804 91.2803 67.4492 91.2803 68.6742ZM108.23 65.193L109.011 65.193C109.011 62.9524 108.361 61.3211 107.064 60.3054C105.761 59.2898 103.995 58.7804 101.765 58.7804C100.514 58.7804 99.4643 58.9367 98.6051 59.2492C97.7459 59.5618 97.0487 59.968 96.4991 60.4618C95.9543 60.9586 95.5643 61.5054 95.3303 62.1054C95.0987 62.7054 94.9835 63.2773 94.9835 63.8242C94.9835 64.918 95.1767 65.793 95.5643 66.4429C95.9543 67.0961 96.5639 67.6055 97.3991 67.968C97.9703 68.2304 98.6207 68.4648 99.3455 68.6742C100.074 68.8805 100.917 69.1024 101.88 69.3367C102.737 69.5461 103.58 69.7554 104.414 69.9617C105.242 70.1711 105.977 70.4524 106.614 70.8023C107.252 71.1554 107.771 71.6054 108.17 72.1523C108.577 72.6992 108.776 73.4179 108.776 74.3023C108.776 75.1618 108.577 75.8929 108.17 76.4929C107.771 77.0898 107.258 77.5805 106.633 77.9586C106.011 78.3367 105.318 78.6085 104.549 78.7805C103.783 78.9492 103.037 79.0336 102.308 79.0336C99.9419 79.0336 98.1299 78.5054 96.8735 77.4492C95.6111 76.393 94.9835 74.7336 94.9835 72.4649L94.2023 72.4649C94.2023 74.9929 94.8827 76.8461 96.2483 78.018C97.6115 79.1898 99.6335 79.7742 102.308 79.7742C103.164 79.7742 104.03 79.6805 104.899 79.4836C105.77 79.2868 106.549 78.9679 107.239 78.5242C107.927 78.0804 108.486 77.5086 108.914 76.8054C109.343 76.0992 109.557 75.243 109.557 74.2242C109.557 73.2586 109.368 72.4774 108.989 71.8774C108.614 71.2805 108.121 70.7836 107.511 70.393C106.898 70.0024 106.211 69.6961 105.445 69.4742C104.677 69.2524 103.904 69.0367 103.127 68.8304C102.033 68.5429 101.079 68.2961 100.261 68.0867C99.4427 67.8773 98.6831 67.6304 97.9799 67.3429C97.3079 67.0554 96.7679 66.6461 96.3647 66.1117C95.9615 65.5774 95.7611 64.8149 95.7611 63.8242C95.7611 63.643 95.8115 63.318 95.9147 62.846C96.0203 62.3773 96.2675 61.9024 96.6575 61.421C97.0487 60.9367 97.6451 60.5086 98.4491 60.1304C99.2543 59.7523 100.358 59.5618 101.765 59.5618C102.723 59.5618 103.598 59.668 104.393 59.8774C105.186 60.0835 105.867 60.418 106.439 60.8742C107.007 61.3304 107.451 61.9086 107.761 62.6117C108.077 63.318 108.23 64.1773 108.23 65.193ZM126.277 65.193L127.055 65.193C127.055 62.9524 126.404 61.3211 125.105 60.3054C123.805 59.2898 122.039 58.7804 119.804 58.7804C118.557 58.7804 117.507 58.9367 116.648 59.2492C115.793 59.5618 115.089 59.968 114.542 60.4618C113.999 60.9586 113.611 61.5054 113.377 62.1054C113.142 62.7054 113.027 63.2773 113.027 63.8242C113.027 64.918 113.221 65.793 113.611 66.4429C113.999 67.0961 114.608 67.6055 115.442 67.968C116.011 68.2304 116.661 68.4648 117.389 68.6742C118.117 68.8805 118.961 69.1024 119.923 69.3367C120.78 69.5461 121.623 69.7554 122.455 69.9617C123.287 70.1711 124.021 70.4524 124.658 70.8023C125.292 71.1554 125.811 71.6054 126.217 72.1523C126.62 72.6992 126.821 73.4179 126.821 74.3023C126.821 75.1618 126.62 75.8929 126.217 76.4929C125.811 77.0898 125.301 77.5805 124.676 77.9586C124.055 78.3367 123.357 78.6085 122.592 78.7805C121.824 78.9492 121.08 79.0336 120.351 79.0336C117.986 79.0336 116.173 78.5054 114.914 77.4492C113.654 76.393 113.027 74.7336 113.027 72.4649L112.245 72.4649C112.245 74.9929 112.927 76.8461 114.289 78.018C115.655 79.1898 117.677 79.7742 120.351 79.7742C121.208 79.7742 122.073 79.6805 122.942 79.4836C123.815 79.2868 124.592 78.9679 125.283 78.5242C125.971 78.0804 126.53 77.5086 126.955 76.8054C127.383 76.0992 127.598 75.243 127.598 74.2242C127.598 73.2586 127.411 72.4774 127.033 71.8774C126.657 71.2805 126.164 70.7836 125.552 70.393C124.943 70.0024 124.255 69.6961 123.486 69.4742C122.724 69.2524 121.949 69.0367 121.171 68.8304C120.077 68.5429 119.124 68.2961 118.304 68.0867C117.486 67.8773 116.726 67.6304 116.027 67.3429C115.352 67.0554 114.811 66.6461 114.408 66.1117C114.005 65.5774 113.804 64.8149 113.804 63.8242C113.804 63.643 113.855 63.318 113.961 62.846C114.065 62.3773 114.311 61.9024 114.698 61.421C115.089 60.9367 115.686 60.5086 116.496 60.1304C117.299 59.7523 118.401 59.5618 119.804 59.5618C120.768 59.5618 121.645 59.668 122.436 59.8774C123.227 60.0835 123.911 60.418 124.483 60.8742C125.052 61.3304 125.496 61.9086 125.808 62.6117C126.121 63.318 126.277 64.1773 126.277 65.193Z" fill="#222222" fill-rule="nonzero" opacity="1" stroke="none"/>
</g>
</g>
<g opacity="1">
<clipPath id="ClipPath_2">
<path d="M7.72068 8.77417L127.721 8.77417L127.721 128.774L7.72068 128.774L7.72068 8.77417Z"/>
</clipPath>
<g clip-path="url(#ClipPath_2)">
<path d="M7.72068 128.774L127.721 128.774L127.721 8.77417L7.72068 8.77417L7.72068 128.774Z" fill="#007acc" fill-rule="nonzero" opacity="1" stroke="none"/>
</g>
</g>
<path d="M34.2515 69.168L34.2143 74.0836L49.8335 74.0836L49.8335 118.465L60.8795 118.465L60.8795 74.0836L76.4987 74.0836L76.4987 69.2648C76.4987 66.5992 76.4423 64.368 76.3679 64.3117C76.3115 64.2367 66.8051 64.1992 55.2803 64.218L34.3079 64.2742L34.2515 69.168Z" fill="#ffffff" fill-rule="nonzero" opacity="1" stroke="none"/>
<path d="M104.549 64.1368C107.595 64.8961 109.921 66.2524 112.055 68.4586C113.155 69.6398 114.795 71.793 114.926 72.3085C114.965 72.4618 109.748 75.9648 106.583 77.9273C106.471 78.0023 106.017 77.5055 105.501 76.7461C103.958 74.4961 102.336 73.5274 99.8615 73.3585C96.2231 73.1086 93.8795 75.0118 93.8987 78.1961C93.8987 79.1273 94.0367 79.6805 94.4147 80.4398C95.2175 82.0992 96.7043 83.0898 101.367 85.1086C109.961 88.8023 113.633 91.2398 115.923 94.7086C118.473 98.5772 119.046 104.746 117.311 109.334C115.407 114.327 110.683 117.715 104.036 118.839C101.977 119.203 97.1015 119.146 94.8887 118.746C90.0707 117.89 85.5023 115.508 82.6835 112.387C81.5771 111.168 79.4267 107.984 79.5575 107.756C79.6175 107.68 80.1107 107.374 80.6639 107.053C81.1991 106.746 83.2175 105.584 85.1207 104.478L88.5671 102.481L89.2919 103.546C90.3023 105.087 92.5139 107.203 93.8459 107.908C97.6739 109.924 102.93 109.64 105.521 107.318C106.627 106.305 107.083 105.261 107.083 103.718C107.083 102.327 106.914 101.718 106.187 100.671C105.254 99.3368 103.352 98.2112 97.9427 95.8711C91.7483 93.2054 89.0831 91.5461 86.6459 88.9148C85.2335 87.393 83.9015 84.9554 83.3483 82.9148C82.8887 81.2242 82.7771 76.9774 83.1395 75.2617C84.4175 69.2804 88.9331 65.1085 95.4419 63.8711C97.5575 63.4711 102.474 63.6211 104.552 64.1368L104.549 64.1368Z" fill="#ffffff" fill-rule="nonzero" opacity="1" stroke="none"/>
<g opacity="1">
<path d="M180.499 44.0764L180.499 104.331L167.804 104.331L167.804 44.0764L145.05 44.0764L145.05 32.7971L204.279 32.7971L204.279 44.0764L180.499 44.0764Z" fill="#3178c6" fill-rule="nonzero" opacity="1" stroke="none"/>
<path d="M227.472 112.729C226.17 116.212 223.378 119.101 219.098 121.396C214.817 123.691 209.829 124.839 204.132 124.839L204.132 114.048C213.54 114.048 218.243 111.688 218.243 106.967C218.243 103.842 216.941 99.0569 214.337 92.6116L197.98 52.0354L210.626 52.0354L224.884 88.1682L237.726 52.0354L250.372 52.0354L227.472 112.729Z" fill="#3178c6" fill-rule="nonzero" opacity="1" stroke="none"/>
<path d="M268.927 103.012L268.927 124.839L256.72 124.839L256.72 52.0354L268.927 52.0354L268.927 55.5511C271.987 52.5563 275.747 51.0589 280.206 51.0589C296.873 51.0589 305.206 60.2386 305.206 78.5979C305.206 87.1591 302.903 93.7509 298.297 98.3733C293.691 102.996 287.4 105.307 279.425 105.307C275.584 105.307 272.085 104.542 268.927 103.012ZM268.927 64.8284L268.927 92.3186C271.141 94.109 273.728 95.0042 276.691 95.0042C282.322 95.0042 286.367 93.6614 288.824 90.9759C291.282 88.2903 292.511 84.0504 292.511 78.2561C292.511 72.0712 291.29 67.7174 288.849 65.1946C286.407 62.6718 282.371 61.4104 276.739 61.4104C273.81 61.4104 271.206 62.5498 268.927 64.8284Z" fill="#3178c6" fill-rule="nonzero" opacity="1" stroke="none"/>
<path d="M362.628 81.9182L325.275 81.9182C325.503 86.0849 326.935 89.3238 329.572 91.635C332.208 93.9462 335.756 95.1018 340.216 95.1018C345.782 95.1018 350.014 93.6533 352.911 90.7561L357.648 100.082C353.351 103.566 346.938 105.307 338.409 105.307C330.434 105.307 324.127 102.972 319.489 98.3001C314.85 93.6289 312.531 87.1103 312.531 78.7444C312.531 70.5087 315.078 63.8356 320.172 58.7249C325.267 53.6142 331.378 51.0589 338.507 51.0589C346.092 51.0589 352.179 53.3212 356.769 57.846C361.359 62.3707 363.654 68.1324 363.654 75.1311C363.654 76.6285 363.312 78.8909 362.628 81.9182ZM325.714 72.7386L351.398 72.7386C350.551 65.0888 346.32 61.2639 338.702 61.2639C331.736 61.2639 327.407 65.0888 325.714 72.7386Z" fill="#3178c6" fill-rule="nonzero" opacity="1" stroke="none"/>
<path d="M370.929 101.059L374.493 92.0745C376.316 93.4091 378.587 94.524 381.305 95.4192C384.023 96.3144 386.456 96.762 388.605 96.762C392.413 96.762 395.473 95.7203 397.784 93.637C400.096 91.5537 401.251 88.9007 401.251 85.678C401.251 83.2692 400.608 81.0312 399.322 78.9641C398.037 76.8971 394.806 74.6429 389.63 72.2014L383.868 69.5159C378.986 67.2373 375.576 64.5354 373.639 61.4104C371.702 58.2854 370.734 54.5257 370.734 50.1311C370.734 44.7926 372.622 40.3655 376.398 36.8499C380.174 33.3343 385.024 31.5764 390.948 31.5764C398.859 31.5764 404.36 32.8623 407.452 35.4339L404.572 43.93C403.269 42.9859 401.284 42.0745 398.614 41.1956C395.945 40.3167 393.471 39.8772 391.193 39.8772C387.872 39.8772 385.26 40.8212 383.356 42.7093C381.451 44.5973 380.499 47.0224 380.499 49.9846C380.499 51.8076 380.841 53.4677 381.525 54.9651C382.208 56.4625 383.16 57.7158 384.381 58.7249C385.602 59.734 388.1 61.15 391.876 62.9729L397.736 65.7561C402.618 68.0673 406.045 70.8261 408.014 74.0325C409.983 77.2389 410.968 81.316 410.968 86.2639C410.968 91.635 408.811 96.1923 404.498 99.9358C400.185 103.68 394.415 105.551 387.189 105.551C380.841 105.551 375.421 104.054 370.929 101.059Z" fill="#3178c6" fill-rule="nonzero" opacity="1" stroke="none"/>
<path d="M460.968 56.2835L456.378 62.8264C455.434 61.8824 453.766 60.9873 451.373 60.1409C448.981 59.2945 446.629 58.8714 444.318 58.8714C439.272 58.8714 435.268 60.6373 432.306 64.1692C429.344 67.7011 427.863 72.5432 427.863 78.6956C427.863 84.8154 429.376 89.4785 432.404 92.6848C435.431 95.8912 439.63 97.4944 445.001 97.4944C449.168 97.4944 453.367 95.8831 457.599 92.6604L461.261 100.473C456.281 103.696 450.112 105.307 442.755 105.307C435.626 105.307 429.734 102.915 425.079 98.1292C420.424 93.344 418.097 86.8662 418.097 78.6956C418.097 70.3623 420.514 63.6728 425.348 58.6272C430.182 53.5817 436.798 51.0589 445.197 51.0589C447.898 51.0589 450.828 51.6285 453.986 52.7679C457.143 53.9072 459.471 55.079 460.968 56.2835Z" fill="#3178c6" fill-rule="nonzero" opacity="1" stroke="none"/>
<path d="M499.445 60.971C497.426 59.5712 495.392 58.8714 493.341 58.8714C490.053 58.8714 487.181 60.385 484.723 63.4124C482.265 66.4397 481.036 70.0856 481.036 74.3499L481.036 104.331L471.759 104.331L471.759 52.0354L481.036 52.0354L481.036 60.385C484.422 54.1676 489.451 51.0589 496.124 51.0589C497.784 51.0589 500.177 51.3518 503.302 51.9378L499.445 60.971Z" fill="#3178c6" fill-rule="nonzero" opacity="1" stroke="none"/>
<path d="M519.464 32.26C521.059 32.26 522.418 32.8216 523.541 33.9446C524.664 35.0677 525.226 36.4104 525.226 37.9729C525.226 39.568 524.664 40.927 523.541 42.0501C522.418 43.1731 521.059 43.7346 519.464 43.7346C517.902 43.7346 516.559 43.1731 515.436 42.0501C514.313 40.927 513.751 39.568 513.751 37.9729C513.751 36.3779 514.305 35.027 515.411 33.9202C516.518 32.8134 517.869 32.26 519.464 32.26ZM514.386 104.331L514.386 59.8479L507.208 59.8479L507.208 52.0354L523.663 52.0354L523.663 104.331L514.386 104.331Z" fill="#3178c6" fill-rule="nonzero" opacity="1" stroke="none"/>
<path d="M547.687 101.45L547.687 124.839L538.409 124.839L538.409 52.0354L547.687 52.0354L547.687 56.3323C551.202 52.8167 555.45 51.0589 560.431 51.0589C567.853 51.0589 573.631 53.3701 577.765 57.9925C581.899 62.6149 583.966 69.3857 583.966 78.305C583.966 86.2477 581.883 92.7337 577.716 97.763C573.549 102.793 567.527 105.307 559.65 105.307C557.436 105.307 555.068 104.917 552.545 104.135C550.022 103.354 548.403 102.459 547.687 101.45ZM547.687 63.3147L547.687 93.7835C548.273 94.6624 549.51 95.5006 551.398 96.2981C553.286 97.0956 555.125 97.4944 556.915 97.4944C568.439 97.4944 574.2 90.984 574.2 77.9632C574.2 71.3551 572.833 66.5211 570.099 63.4612C567.364 60.4013 562.986 58.8714 556.964 58.8714C555.662 58.8714 554.067 59.3271 552.179 60.2386C550.291 61.15 548.794 62.1754 547.687 63.3147Z" fill="#3178c6" fill-rule="nonzero" opacity="1" stroke="none"/>
<path d="M597.443 59.3596L591.388 59.3596L591.388 52.0354L597.443 52.0354L597.443 41.0979L606.72 37.5335L606.72 52.0354L621.075 52.0354L621.075 59.3596L606.72 59.3596L606.72 85.3362C606.72 89.7307 607.461 92.8557 608.942 94.7112C610.423 96.5667 612.807 97.4944 616.095 97.4944C618.471 97.4944 620.929 96.8922 623.468 95.6878L624.835 103.842C620.994 104.819 616.779 105.307 612.189 105.307C608.055 105.307 604.563 103.769 601.715 100.693C598.867 97.6165 597.443 93.7346 597.443 89.0471L597.443 59.3596Z" fill="#3178c6" fill-rule="nonzero" opacity="1" stroke="none"/>
</g>
</g>
</svg>
